<svg xmlns="http://www.w3.org/2000/svg" width="8.374" height="12.775" viewBox="0 0 8.374 12.775"><path fill="#666" d="M3.556 12.775v-1.11C2.27 11.463 1.083 10.88 0 9.918L1.413 8.2c.79.69 1.504 1.13 2.143 1.322V7.258c-1.064-.273-1.845-.64-2.34-1.1C.718 5.695.47 5.03.47 4.164c0-.866.285-1.58.852-2.143.567-.562 1.31-.898 2.234-1.01V.267h1.61v.775c1.013.143 2.022.562 3.024 1.262L6.945 4.097c-.638-.456-1.23-.76-1.778-.91v2.187c1.094.284 1.902.664 2.423 1.14.522.476.784 1.15.784 2.02 0 .873-.292 1.592-.874 2.16-.583.566-1.36.906-2.333 1.017v1.065h-1.61zm0-9.65c-.436.152-.653.43-.653.835 0 .406.217.715.653.928V3.124zm2.386 5.532a.834.834 0 0 0-.167-.53c-.112-.144-.315-.275-.608-.398V9.6c.516-.163.775-.477.775-.943z"/></svg>