<svg xmlns="http://www.w3.org/2000/svg" width="204.491" height="190.559" viewBox="0 0 204.491 190.559"><g fill="#B3B3B3"><path d="M146.9 45.927H3.4A3.4 3.4 0 0 0 0 49.327v68.058c0 1.875 1.522 3.4 3.402 3.4H146.9a3.4 3.4 0 0 0 3.4-3.4v-68.06a3.4 3.4 0 0 0-3.4-3.398zm-3.403 68.055H6.805V52.725h136.692v61.257zm0 0M146.9 124.934a3.397 3.397 0 0 0-3.403 3.396v2.656h-21.9v-2.656a3.392 3.392 0 0 0-3.396-3.396 3.395 3.395 0 0 0-3.395 3.396v2.656H92.898v-2.656a3.395 3.395 0 0 0-3.4-3.396 3.4 3.4 0 0 0-3.402 3.396v2.656H64.2v-2.656a3.397 3.397 0 0 0-3.402-3.396 3.396 3.396 0 0 0-3.397 3.396v2.656H35.5v-2.656a3.395 3.395 0 0 0-3.397-3.396c-1.88 0-3.4 1.52-3.4 3.396v2.656H6.804v-2.656a3.4 3.4 0 0 0-3.402-3.396A3.398 3.398 0 0 0 0 128.33v6.057a3.402 3.402 0 0 0 3.403 3.402H73.58v49.372a3.4 3.4 0 0 0 6.802 0V137.79H146.9a3.402 3.402 0 0 0 3.4-3.403v-6.057a3.397 3.397 0 0 0-3.4-3.396zm0 0"/><path d="M15.49 187.162c0 1.875 1.124 3.396 3.007 3.396 1.875 0 2.994-1.52 2.994-3.396V138h-6v49.162zM131.49 187.162c0 1.875 1.62 3.396 3.497 3.396 1.88 0 3.504-1.52 3.504-3.396V138h-7v49.162z"/></g><path fill="none" stroke="#B3B3B3" stroke-width="2" stroke-miterlimit="10" d="M1.49 35h147M159.49 42v71"/><text transform="translate(50.94 22.045)" fill="#4D4D4D" font-family="'Montserrat-Regular'" font-size="11.27">12 MTS</text><text transform="translate(169.272 81.21)" fill="#4D4D4D" font-family="'Montserrat-Regular'" font-size="11.27">4 MTS</text></svg>