<svg xmlns="http://www.w3.org/2000/svg" width="9.598" height="8.754" viewBox="0 0 9.598 8.754"><path fill="#666" d="M9.254 2.373L7.05.165a.555.555 0 0 0-.723-.06l-.062.037-2.837.39a.746.746 0 0 0-.19.03L3.14.47C3.137.463 3.132.46 3.13.455A.563.563 0 0 0 2.762.32a.55.55 0 0 0-.395.166L.163 2.694a.56.56 0 0 0-.03.756l.947 1.057c.03.127.072.26.125.394a.706.706 0 0 0 .044.95l.003.003a.7.7 0 0 0 .484.205c-.003.03-.006.057-.006.086a.7.7 0 0 0 .207.498l.003.002a.703.703 0 0 0 .564.204.043.043 0 0 0 .006.007v.028a.7.7 0 0 0 .205.498l.003.003.002.003a.7.7 0 0 0 .498.207l.068.066c.008.175.08.34.205.465 0 0 .002 0 .004.003l.002.002a.7.7 0 0 0 .465.204l.186.186a.806.806 0 0 0 1.36-.423l.115.117a.836.836 0 0 0 .584.242c.18 0 .354-.06.494-.17a.804.804 0 0 0 .292-.49c.15.13.34.2.537.2.18 0 .354-.06.493-.17a.807.807 0 0 0 .104-1.164.8.8 0 0 0 .66-.744.81.81 0 0 0-.235-.616l-.3-.3c.012-.01.022-.02.032-.034.56-.713.86-1.244.973-1.714a.33.33 0 0 0 .023-.046l.062-.156a.562.562 0 0 0-.086-.68zM1.75 5.678a.323.323 0 0 1-.23-.095L1.52 5.58a.325.325 0 0 1 0-.458l.253-.253a.32.32 0 0 1 .46 0l.002.002a.325.325 0 0 1 0 .458l-.253.253a.323.323 0 0 1-.23.095zm.92.698a.327.327 0 0 1-.46 0l-.002-.003a.325.325 0 0 1 0-.458l.6-.6a.323.323 0 0 1 .457 0l.004.003a.325.325 0 0 1 0 .458l-.6.6zm.776.74a.322.322 0 0 1-.458 0l-.003-.003a.325.325 0 0 1 0-.458l.388-.388a.325.325 0 0 1 .457 0l.004.003a.325.325 0 0 1 0 .458l-.388.39zm.546.838a.327.327 0 0 1-.23-.094l-.002-.004a.325.325 0 0 1 0-.458l.176-.177a.327.327 0 0 1 .46 0l.003.005a.325.325 0 0 1 0 .458l-.18.177a.327.327 0 0 1-.228.094zm1.056.26a.426.426 0 0 1-.632.035l-.034-.033a.65.65 0 0 0 .108-.088l.177-.178a.702.702 0 0 0 .203-.447l.136.136c.153.154.177.402.042.573zM8.282 5.57a.426.426 0 0 1-.038.635.41.41 0 0 1-.257.088.45.45 0 0 1-.315-.13l-1.538-1.54a.202.202 0 0 0-.145-.06.207.207 0 0 0-.145.353L7.82 6.895a.425.425 0 0 1-.038.633.41.41 0 0 1-.257.09.447.447 0 0 1-.314-.132L5.246 5.518a.204.204 0 0 0-.294 0 .204.204 0 0 0 0 .29L6.5 7.352a.425.425 0 0 1-.038.633.41.41 0 0 1-.257.088.447.447 0 0 1-.315-.13l-1.598-1.6a.714.714 0 0 0-.188-.343L4.1 6a.697.697 0 0 0-.403-.2.708.708 0 0 0-.16-.75l-.003-.003a.706.706 0 0 0-.847-.114.71.71 0 0 0-.184-.326L2.5 4.602V4.6a.703.703 0 0 0-1 0 3.096 3.096 0 0 1-.06-.226.18.18 0 0 0-.033-.072l-.99-1.104a.18.18 0 0 1 .016-.235L2.638.753a.178.178 0 0 1 .126-.05c.04 0 .082.013.116.042l.018.017a.8.8 0 0 0 .558 1.37l1.404.017 3.422 3.42zM9 2.877l-.076.19a.19.19 0 0 0-.033.073c-.106.49-.483 1.055-.908 1.594l-2.96-2.962-1.564-.02c-.23 0-.42-.19-.42-.42 0-.23.19-.42.42-.42L6.39.507 6.54.424A.176.176 0 0 1 6.654.38a.18.18 0 0 1 .126.053l2.205 2.21A.18.18 0 0 1 9 2.875zm0 0"/></svg>