<svg xmlns="http://www.w3.org/2000/svg" width="30.274" height="29.179" viewBox="0 0 30.274 29.179"><path fill="#FFF" d="M23.265 16.866c-2.412 0-4.375-1.963-4.375-4.375s1.963-4.374 4.375-4.374 4.375 1.963 4.375 4.375-1.963 4.376-4.375 4.376zm0-7c-1.447 0-2.625 1.178-2.625 2.625s1.178 2.626 2.625 2.626 2.625-1.178 2.625-2.625-1.178-2.624-2.625-2.624zM6.64 26.49c-2.412 0-4.375-1.962-4.375-4.374S4.228 17.74 6.64 17.74s4.375 1.964 4.375 4.376S9.052 26.49 6.64 26.49zm0-7c-1.447 0-2.625 1.18-2.625 2.626S5.193 24.74 6.64 24.74s2.625-1.177 2.625-2.624S8.087 19.49 6.64 19.49zM6.64 10.74c-2.412 0-4.375-1.962-4.375-4.374S4.228 1.99 6.64 1.99s4.375 1.964 4.375 4.376S9.052 10.74 6.64 10.74zm0-7c-1.447 0-2.625 1.18-2.625 2.626S5.192 8.99 6.64 8.99s2.625-1.177 2.625-2.624S8.087 3.74 6.64 3.74z"/><path fill="#FFF" d="M10.68 6.573l9.405 3.72-.643 1.627-9.406-3.72zM19.928 13.446l.984 1.446-10.282 7-.985-1.447z"/></svg>