<svg xmlns="http://www.w3.org/2000/svg" width="30.274" height="29.179" viewBox="0 0 30.274 29.179"><g fill="#FFF"><path d="M14.85 2.256C8.05 2.256 2.52 7.79 2.52 14.59c0 6.8 5.532 12.333 12.333 12.333S27.184 21.39 27.184 14.59 21.653 2.256 14.85 2.256zm0 23.05c-5.907 0-10.715-4.808-10.715-10.716S8.943 3.874 14.85 3.874 25.567 8.682 25.567 14.59 20.76 25.306 14.85 25.306zm0 0"/><path d="M14.85 7.892a3.94 3.94 0 0 0-3.933 3.934.81.81 0 0 0 1.618 0A2.32 2.32 0 0 1 14.85 9.51c1.278 0 2.317 1.04 2.317 2.316s-1.04 2.316-2.316 2.316a.81.81 0 0 0-.808.81v2.816a.81.81 0 0 0 1.618 0v-2.093a3.942 3.942 0 0 0 3.125-3.85 3.94 3.94 0 0 0-3.934-3.933zm0 0M14.852 19.137a1.016 1.016 0 1 0 0 2.03 1.016 1.016 0 0 0 0-2.03zm0 0"/></g></svg>