<svg xmlns="http://www.w3.org/2000/svg" width="22.25" height="37.203" viewBox="0 0 22.25 37.203"><path fill="none" stroke="#FFF" stroke-linecap="round" stroke-linejoin="round" stroke-miterlimit="10" d="M.965 35.792V18.744H7.91l2.777 10.77 2.736-10.77h6.96v17.048H16.03v-13.42l-3.41 13.42H8.713l-3.688-13.42v13.42H.965zM.965 17.638V.59H7.91l2.777 10.77L13.423.59h6.96v17.048H16.03V4.218l-3.41 13.42H8.713L5.025 4.218v13.42H.965z"/><path fill="#FFF" d="M3.412 20.337h4.684c-.035.04.202.23.23.29.544 1.084 3.06 2.015 3.675.504.507-1.244-.624-1.77-1.668-1.972-2.38-.46-6.36-.483-6.337-3.827.006-.807.184-1.716.712-2.353.47-.568 1.15-1.002 2.037-1.3 2.295-.77 5.757-.8 7.83.612 1.035.705 1.578 1.646 1.63 2.823-.005-.098-3.952.058-4.333.113-.187-.934-.683-1.38-1.612-1.566-.717-.146-1.94-.047-2.192.793-.144.475.372 1.025.776 1.205.58.257 1.28.35 1.9.465 1.046.194 2.115.268 3.156.486 2.156.45 3.02 2.346 2.72 4.33-.23 1.555-1.474 2.612-2.93 3.09-.948.31-2.13.468-3.545.468-2.063 0-3.646-.375-4.75-1.125-.555-.375-1.79-1.77-1.98-3.036z"/></svg>