<svg xmlns="http://www.w3.org/2000/svg" width="30.597" height="21.153" viewBox="0 0 30.597 21.153"><path fill="#FFF" stroke="#FFF" stroke-width=".25" stroke-miterlimit="10" d="M11.584 2.495h3.934v-.287a.162.162 0 0 0-.16-.162h-3.613c-.04 0-.08.015-.103.04-.042.042-.058.08-.058.122v.287zM30.1 7.055c-.243-.396-.7-.623-1.254-.623H8.9c-.964 0-2.053.68-2.48 1.55l-5.364 10.95c-.245.498-.245 1.01 0 1.405.243.397.702.625 1.257.625h19.94c.976 0 2.065-.684 2.48-1.552l5.364-10.95c.245-.498.245-1.01.003-1.405zm-.48 1.168l-5.365 10.95c-.33.692-1.235 1.252-2 1.252H2.313c-.766 0-1.116-.564-.778-1.252L6.9 8.223c.336-.686 1.234-1.252 2-1.252h19.947c.766 0 1.11.567.772 1.253z"/><path fill="#FFF" stroke="#FFF" stroke-width=".25" stroke-miterlimit="10" d="M.713 18.01a.273.273 0 0 1-.272-.275V3.963c0-.58.47-1.052 1.043-1.052H9.44c.274 0 .5-.225.5-.503V1.354c0-.58.465-1.052 1.04-1.052h4.947a1.05 1.05 0 0 1 1.043 1.052V2.2a.5.5 0 0 0 .497.503h8.226c.572 0 1.04.473 1.04 1.053V5.86a.272.272 0 0 1-.542 0V3.757a.5.5 0 0 0-.496-.503h-8.226A1.05 1.05 0 0 1 16.426 2.2v-.846a.5.5 0 0 0-.5-.503H10.98a.5.5 0 0 0-.5.504v1.052A1.05 1.05 0 0 1 9.44 3.46H1.482c-.275 0-.5.225-.5.502v13.77c.002.155-.12.277-.27.277z"/></svg>