<svg xmlns="http://www.w3.org/2000/svg" width="38.962" height="22.815" viewBox="0 0 38.962 22.815"><path fill="#FFF" d="M38.947 17.924c.05-.383-.03-.69-.092-.94-.04-.16-.074-.284-.074-.417 0-.24-.114-.416-.19-.53-.002 0-.002 0-.002-.003-.89-3.698-2.72-6.814-5.3-9.02a4.335 4.335 0 0 0 .9-2.648A4.37 4.37 0 0 0 29.82 0a4.37 4.37 0 0 0-4.365 4.365 4.37 4.37 0 0 0 4.365 4.365c.977 0 1.88-.322 2.61-.868l-.073.085c2.407 2.03 4.118 4.938 4.952 8.405.025.162.1.29.162.385.014.184.05.328.084.492H26.794c-.047-.083-.096-.23-.146-.345a15.7 15.7 0 0 0-2.258-3.674c.846-1.637 1.72-2.855 2.672-3.716l-.883-.974c-.98.886-1.872 2.082-2.722 3.643-.434-.445-.77-.743-.932-.878.56-.734.896-1.65.896-2.646a4.37 4.37 0 0 0-4.366-4.367A4.37 4.37 0 0 0 14.69 8.64a4.37 4.37 0 0 0 4.366 4.364 4.344 4.344 0 0 0 2.67-.916l-.117.146c.024.02 2.437 1.954 3.83 5.17.87 2.006 1.21 3.36 1.343 4.096h-14.26c-.003-.746.146-2.215 1.12-4.05 1.314-2.474 2.637-3.67 2.65-3.68l-.696-.786c-1-2.313-2.428-4.315-4.146-5.807l-.1-.085a4.33 4.33 0 0 0 .896-2.646A4.37 4.37 0 0 0 7.88.08a4.37 4.37 0 0 0-4.364 4.366A4.37 4.37 0 0 0 7.88 8.81c.998 0 1.918-.336 2.653-.9l-.103.127c.054.043.106.088.158.133 1.636 1.42 2.987 3.354 3.914 5.602a18.29 18.29 0 0 0-2.02 3.064c-.085.158-.163.31-.237.473H1.32c.125-2.63 1.48-5.407 3.828-7.755l-.93-.932C1.576 11.267.078 14.4 0 17.453v.017c0 .164.035.303.06.406.01.03.02.074.022.094v.656h11.63c-.71 2.137-.458 3.58-.444 3.656l.1.533h16.814v-.656c0-.06-.012-1.233-.873-3.616h11.65l-.013-.62zM29.822 7.416a3.053 3.053 0 0 1-3.05-3.05 3.053 3.053 0 0 1 3.05-3.05 3.052 3.052 0 0 1 3.05 3.05 3.053 3.053 0 0 1-3.05 3.05zm-10.764 4.272a3.053 3.053 0 0 1-3.05-3.05 3.054 3.054 0 0 1 3.05-3.05 3.054 3.054 0 0 1 3.05 3.05c0 1.682-1.368 3.05-3.05 3.05zM7.883 7.498a3.053 3.053 0 0 1-3.05-3.05 3.053 3.053 0 0 1 3.05-3.05 3.054 3.054 0 0 1 3.05 3.05c0 1.682-1.368 3.05-3.05 3.05z"/></svg>