<svg xmlns="http://www.w3.org/2000/svg" width="30.274" height="29.179" viewBox="0 0 30.274 29.179"><g fill="#FFF"><path d="M29.343.32H.96C.59.32.29.62.29.99v13.463c0 .37.3.673.673.673h28.383a.673.673 0 0 0 .674-.673V.99c0-.37-.3-.67-.674-.67zm-.672 13.46H1.635V1.664h27.038V13.78zm0 0M29.343 15.946c-.37 0-.672.3-.672.672v.525h-4.33v-.525a.672.672 0 0 0-1.345 0v.525h-4.332v-.525a.673.673 0 0 0-1.346 0v.525h-4.332v-.525a.672.672 0 0 0-1.345 0v.525H7.31v-.525a.672.672 0 0 0-1.345 0v.525h-4.33v-.525a.673.673 0 0 0-1.347 0v1.198c0 .37.3.673.673.673H12.8v9.765a.673.673 0 0 0 1.346 0V18.49h2.018v9.765a.672.672 0 0 0 1.346 0V18.49h11.836a.673.673 0 0 0 .674-.674v-1.198a.674.674 0 0 0-.675-.672zm0 0"/></g></svg>