<svg xmlns="http://www.w3.org/2000/svg" width="444.566" height="390.833" viewBox="0 0 444.566 390.833"><path fill="#B3B3B3" d="M98.153 196.495c-1.555-1.954-2.932-4.148-5.09-5.275-2.05-1.072-4.633-1.36-6.843-2.527-4.4-2.325-6.173-6.065-10.57-1.47-9.01 9.414-12.234-14.893-13.78-20.314-.707-2.468-.223-10.084-2.275-11.605-3.003-2.225-8.812 1.686-12.3 1.922-8.406.565-19.03-3.968-20.875-12.51-.956-4.432.884-8.497-2.22-12.316-2.58-3.18-6.563-3.44-9.507-5.81-3.772 2.916-8.92 7.748-10.46 12.576-2.086 6.54 2.673 9.9 2.786 15.963.098 5.308-3.11 9.824-2.772 15.96.39 7.052-1.105 7.837-2.963 13.73-2.75 8.708-1.886 25.77 10.6 24.44 4.947-.528 9.353-4.654 13.86-6.263 4.986-1.778 9.352-4.72 14.592-6.246 3.95-1.15 12.21-1.726 16.048.045 2.585 1.192 1.205.53 1.104 2.907-.073 1.69.163 3.338.147 5.04-.02 2.25-.515 3.913-1.53 5.888-1.86 3.632-4.57 7.483-3.293 11.78 1.182 3.98 4.14 7.176 5.164 11.4.854 3.524 3.413 4.072 5.563 6.723 4.395 5.415-1.36 16.355 6.426 19.3.946.36 2.1.038 3.04.37 2.33.814 1.35.274 2.494 1.895 3.035 4.29 4.36 4.365 10.247 4.365 3.605 0 6.276.82 9.45 2.398 3.14 1.557 6.475 4.78 10.02 5.22 4.874.603 6.284-4.083 9.532-6.365 4.828-3.388 6.95-7.19 9.857-12.23 1.115-1.93 1.248-4.678 2.885-6.294 2.41-2.38 3.403-.892 5.672.22 2.536 1.236 1.615 1.35 3.32-1.06 2.23-3.152 6.04-6.333 10.068-5.034 4.61 1.49 5.36 7.047 8.803 9.84 9.642 7.823 25.95 5.58 24.498 21.343-.818 8.89.443 7.19 6.242 13.358 4.278 4.55 3.607 8.418 5 14.4 2.624 11.288 7.2 21.184.707 32.1-2.8 4.704-10.52 9.247-5.062 14.593 4.943 4.84 16.43.803 22.24 5.17 3.824 2.875 3.306 4.5 3.472 9.216.038 1.104-1.032 4.19-.725 4.838 1.297 2.744 2.67 1.186 4.195 2.778 3.81 3.984 9.622 10.096 16.515 7.74 4.927 11.776 19.356 17.87 26.355 4.77 5.797-10.854 2.48-23.968 5.73-35.362 1.834-6.427 3.46-9.645 8.83-13.395 3.557-2.484 9.218-4.26 11.43-7.982 5.084-8.558-3.582-5.14-5.565-10.03-.66-1.633 3.204-14.54 4.022-16.516 1.408-3.393 3.9-4.38 6.074-7.65 1.984-2.983 1.896-7.334 3.8-10.222 3.01-4.578 18.667-10.664 17.314-.986 2.02.4 5.007.514 6.66 1.65 3.026 2.074-.148 5.532 5.71 5.442 6.06-.09 8.148-7.436 11.938-10.268 4.967-3.715 10.298-2.05 14.628-6.923 3.085-3.473 6.73-8.717 9.543-12.666 2.986-4.194 5.208-9.96 11.085-12.007 8.09-2.815 6.394 4.164 13.17 4.37 7.07.22 7.673-7.786 9.545-12.507 1.443-3.64 6.98-10.336 6.445-13.9-.353-2.353-3.16-2.193-4.188-4.112-1.166-2.174-1.03-4.82-2.088-6.987-1.927-3.947-3.908-5.71-8.14-7.772-8.905-4.346-18.392-8.558-16.13-20.667 1.608-8.613 9.498-15.26 12.492-22.9 3.678-9.387 3.49-14.44-2.848-22.207 3.054-3.288-5.014-8.19-5.483-13.035-.676-6.992 3.285-11.192 8.312-15.25 5.26-4.246 11.394-6.922 16.675-11.085 5.328-4.2 9.64-9.267 14.436-14.068 9.524-9.544 14.867-17.975 18.337-31.22 1.51-5.766 2.643-11.598 4.166-17.365 1.193-4.52 1.563-12.617 4.127-16.52 3.77-5.73 8.883-4.95 3.216-13.324-4.398-6.493-8.493-7.203-15.813-7.636-8.307-.49-11.32-1.234-17.87 3.644-5.388 4.013-10.205 5.26-16.154 8.31-6.23 3.2-9.398 8.47-16.657 8.87-4.822.265-11.207-2.684-15.092.867-4.178 3.82-2.178 11.2-1.526 15.79.864 6.078.03 8.862-1.946 14.035-2.3 6.042-4.623 12.058-4.336 18.583.308 6.945 3.566 8.984-1.925 14.07-3.775 3.494-9.937 5.957-14.228 8.68-7.263 4.603-6.642 3.76-10.223-3.316-2.342-4.627-17.832-24.944-18.037-9.718-.08 5.973 7.02 8.89 6.935 15.963-.08 6.476-2.926 13.31-3.468 19.974-1.09 13.402-1.284 22.1-7.79 34.163-5.92 10.963-17.512 19.553-29.685 20.835-6.784.714-14.145.346-20.824.68-5.752.29-10.847-1.846-16.656-1.39-7.397.58-8.372 3.33-9.717 9.716-1.477 7.01-1.63 9.015-8.483 13.05-2.357 1.39-12.73 7.65-14.608 6.584-4.297-2.44.594-13.1 1.58-16.164 3.57-11.1 2.967-21.864-9.026-27.93-9.765-4.94-15.983 10.748-22.38 17.346-4.59 4.733-8.836 7.375-6.975 14.21 1.24 4.545 7.142 11.752 5.1 17.23-1.983 5.312-6.906 4.288-11.357 3.478-4.588-.836-7.775 4.27-12.454 2.327-1.24-.514-1.686-1.72-2.876-2.35-4.988-2.65-8.692-.81-13.91-.568-5.427.25-10.022-1.893-15.186-2.834-4.872-.89-9.603-2.836-14.204-4.598-1.714-.658-2.953-1.964-4.093-3.4z"/><path fill="#E6E6E6" d="M303.46 268.965c.862-.302 1.607-.56 2.213-1.155 1.006-.99.98-1.9.94-3.052-.03-1.04-.067-2.223.73-3.402.92-1.358 5.283-3.232 6.103-3.513.497-.17 1.13-.228 1.74-.283.436-.04 1.08-.1 1.328-.196.293-.24 1.144-1.194 1.3-1.468-.1.174-.168.583.068.95l.853-.535-.096-1.05.854-.092.036.11c.966.146 1.91.63 2.83 1.108 1.014.522 2.06 1.065 2.733.887.53-.14.915-.462 1.177-.992.626-1.256.396-3.287-.134-4.56-1.027-2.463-1.196-2.564-4.454-2.67l-.96-.028-.047-.955c-.044-.878-.005-1.78.028-2.652.078-1.854.16-3.772-.665-4.588-.452-.443-1.27-.64-2.42-.575l-.536.027-.335-.42c-.35-.44-.803-.885-1.282-1.354-.953-.935-2.034-1.992-2.592-3.355l-.322-.8.725-.467c.668-.43 1.565-.745 2.518-1.076 1.037-.366 2.46-.86 2.798-1.37.406-.61.218-1.846.036-3.04-.24-1.578-.488-3.21.396-4.43 2.48-3.425 13.648-1.895 16.198-.525 1.168.627 1.633 1.68 1.968 2.445.13.284.34.76.453.8.013.005.346.113 1.483-.472.634-.323 1.71-2.22 2.69-5.724 1.564-5.603 1.844-9.773.767-11.444a1.54 1.54 0 0 0-1.124-.73l-1.02-.156.145-1.02c.222-1.594.116-2.767.015-3.9a21.377 21.377 0 0 1-.104-1.418c-.09-.026-.17-.048-.258-.076-3.103-6.236-5.912-6.36-12.57-5.022-5.676 1.14-10.314.955-15.73-1.052-.992-.367-1.987-.713-2.98-1.057-.4.112-.79.173-1.123.226-.477.07-.972.144-1.11.32-.56.688-.556 1.116-.546 1.968.004.557.012 1.25-.162 2.113-.103.507-.186.97-.265 1.398-.62 3.444-1.084 5.024-5.578 6.34-1.415.415-6.314 1.668-9.865.447-1.488-.516-2.554-1.343-3.586-2.118-1.423-1.072-2.655-2.04-4.868-2.04h-.04c-1.758 0-3.036.862-4.517 1.83-1.077.706-2.188 1.445-3.56 1.873-1.66.516-3.06.5-4.075.484-1.79-.026-2.016-.028-2.158 2.76-.044.894.174 1.68.382 2.442.485 1.765 1.034 3.77-2.043 6.17-1.562 1.22-3.207 1.538-4.86 1.538-.928 0-1.86-.1-2.78-.198-.722-.08-1.46-.158-2.192-.186 2.824 5.28 2.978 9.57 3.156 14.88.035 1.09.073 2.233.136 3.45.176 3.372.266 7.192-.896 9.83-.537 1.217-1.326 2.187-2.025 3.038-1.17 1.43-2.096 2.56-1.797 4.53l.18 1.177-1.188.022c-.18.004-.373.04-.58.096.357.118.696.255.99.447 4.614 3.022 5.487 7.643.946 10.875-1.466 1.042-5.405 1.425-5.028 3.826.387 2.48 4.887 2.39 6.508 1.95 2.994-.806 4.4-3.76 7.866-3.813 3.178-.05 5.455 2.532 8.26 3.31 1.542 5.534-6.85 4.642-5.853 9.194 1.116 5.08 8.17 1.015 9.76 3.118 2.006 2.652-3.627 6.115.79 9.26 2.56 1.824 8.608.352 10.767-1.62 5.788-5.283 3.175-13.27 10.848-16.406.023-1.616.22-4.444.983-5.667.994-1.59 2.395-2.078 3.63-2.51z"/><path fill="#E6E6E6" d="M249.21 255.278l.986.178c.508.092 1.017-.072 1.604-.264.202-.063.416-.134.643-.194-.005-2.29 1.222-3.793 2.323-5.138.67-.82 1.308-1.6 1.73-2.555 1.057-2.41.84-6.623.725-8.888a185.937 185.937 0 0 1-.14-3.486c-.192-5.736-.33-9.882-3.755-15.45-.47-.762-2.338-2.468-3.702-3.716-2.173-1.985-2.74-2.55-2.907-3.102-.66-2.17.37-3.156 1.056-3.807.364-.35.556-.543.6-.828.092-.595-.033-1.182-.17-1.806-.17-.8-.365-1.71-.098-2.72.274-1.027.91-1.934 1.527-2.81 1.348-1.903 1.718-2.673.605-3.82-.914-.94-2.178-.746-2.847-.547-1.473.434-2.758 1.652-2.995 2.833l-.198 1.015-1.016-.192c-1.658-.318-3.41-.75-5.267-1.207-4.06-1.002-8.252-2.027-11.96-2l-1.576.02.604-1.458c.48-1.15.473-1.787.325-1.98-.426-.555-2.757-.245-4.153-.06-.84.112-1.634.217-2.354.25-.588 1.67-1.39 3.31-1.74 5.03-.175.87 1.027 1.413.982 2.328-.034.634-1.596 1.383-1.56 1.712.2 1.773.572 2.98 1.468 4.65-7.68 1.72-.087 8.47.624 12.492.245 1.392.757 6.356-1.93 6.626-3.106.307-2.417-5.218-3.162-6.626-2.548-4.797-9.285-1.23-13.055 1.505-5.73 4.156-.27 9.166-4.167 14.328l-.462-.462c-1.335.208-2.59.573-4.093.53.426 2.95 2.473 6.146.762 9.16-1.976 3.476-4.74 2.986-7.31.903-2.537 1.588 2.337 5.69.59 9.3-1.123 2.314-5.757 6.802-7.83 7.38.93.554 3.657 2.795 3.118 4.186-.854 2.21-4.452-.135-5.603 2.3-1.438 3.05 4.71 7.276.633 10.68 4.175-.81 4.118 2.943 7.127 3.793 3.608 1.02 3.388-2.14 5.77-4.64 2.792-2.932 15.49-5.656 10.03-11.204 3.514-3.534 8.66 1.878 11.748-4.527.99-2.06.076-4.884 2.18-6.254 2.993-1.95 3.814.695 5.1 1.976 2.014 2.012.005 3.837 4.615 3.144 3.496-.527 3.485-2.867 5.088-4.52 3.895-4.02 5.36-1.52 10.11 1.04.077.378-.37.352-.37.74 2.85-.38 7.527-1.936 11.408-2.343.04-.173.088-.336.126-.517l.216-.978z"/><path fill="#E6E6E6" d="M226.958 192.083c.51.663.646 1.534.404 2.636 3.563.18 7.362 1.118 11.05 2.03 1.495.368 2.92.72 4.268 1.005.707-1.545 2.274-2.882 4.118-3.43 1.904-.564 3.705-.163 4.93 1.097 2.418 2.49.792 4.79-.396 6.473-.534.758-1.04 1.473-1.217 2.142-.138.526-.02 1.092.125 1.748.158.743.34 1.59.19 2.563-.158.996-.772 1.584-1.22 2.013-.557.53-.774.742-.53 1.607.276.366 1.466 1.454 2.348 2.26 1.62 1.48 3.28 3.002 3.968 4.018l-.012-.352c1.188-.04 2.333.084 3.438.205 2.342.257 4.357.476 6.137-.91 1.982-1.548 1.76-2.358 1.312-3.977-.24-.875-.51-1.872-.45-3.098.228-4.467 1.842-4.782 4.27-4.733.976.013 2.082.03 3.423-.384 1.094-.34 2.038-.444 3.04-1.1 1.614-1.056 3.277-1.628 5.655-1.628h.056c2.9 0 4.604.785 6.105 1.914.946.71 1.837 1.126 3.014 1.53 2.356.814 5.99.156 8.6-.605 3.447-1.007 3.576-1.784 4.118-4.774.077-.44.163-.95.268-1.47.13-.65.128-1.192.12-1.7-.008-.994-.016-2.03 1.007-3.3a2.26 2.26 0 0 1 .406-.397c-2.335-.763-4.67-1.504-6.99-2.29-3.488-1.185-3.697-1.057-4.165-5.095-.338-2.948.882-6.193-3.627-5.155-.027-2.966 9.02-2.466 11.61-3.52 2.873-1.17 7.18-3.142 8.143-6.498-2.27-4.407-4.393-1.69-3.053-7.51.842-3.665 1.64-6.51-1.158-10.14-2.34-3.04-7.146-4.647-10.884-2.45-4.79 2.813-5.172 10.05-10.282 12.95-7.04 3.992-18.52 4.848-26.372 5.69-7.57.816-15.405-2.633-22.672-.843-10.786 2.656-7.192 16.89-16.575 21.26.02.523-.023 1.038-.106 1.544.53-.05 1.075-.12 1.51-.18 2.417-.32 4.918-.655 6.078.855zM400.777 219.85c-.577-2.904-5.67-5.032-7.533-7.372-2.722-3.42-4.63-6.635-8.57-8.952-4.653-2.736-14.08-8.92-19.51-8.685-4.117.176-8.144 4.286-12.158 5.69-4.17 1.454-6.807 2.434-10.398 1.814.018.232.037.466.063.708.092.99.19 2.092.075 3.485.64.285 1.18.752 1.584 1.38 1.824 2.82.73 8.7-.51 13.134-1.104 3.953-2.364 6.313-3.747 7.02-1.348.688-2.31.87-3.127.58-.96-.34-1.347-1.217-1.657-1.92-.278-.627-.517-1.164-1.055-1.454-2.338-1.255-12.008-2.178-13.527-.085-.382.528-.19 1.784-.022 2.894.245 1.586.492 3.228-.36 4.507-.727 1.093-2.31 1.647-3.844 2.18-.412.148-.832.293-1.202.44.444.634 1.052 1.23 1.645 1.81.377.366.763.745 1.112 1.137 1.52 0 2.658.393 3.467 1.19 1.48 1.46 1.38 3.85 1.284 6.155-.02.5-.04 1.012-.046 1.512 3.035.176 4.014.776 5.318 3.907.704 1.687 1.027 4.37.08 6.288-.532 1.07-1.4 1.788-2.517 2.08-1.444.38-2.854-.35-4.22-1.055-.716-.373-1.45-.755-2.062-.884-.66.946-1.812 1.836-1.83 1.845-.57.295-1.33.364-2.132.438-.467.04-.993.09-1.26.18-1.393.474-4.618 2.106-5.047 2.713-.42.618-.4 1.302-.372 2.168.04 1.323.092 2.97-1.564 4.6-.938.923-2.024 1.303-2.984 1.637-1.088.382-1.947.68-2.552 1.652-.38.597-.577 2.487-.648 3.898 7.808-1.707 9.812 7.307 15.056 11.506 3.73 2.99 6.562 2.333 10.62-.23 3.62-2.284 3.796-5.565 6.94-8.213 2.75-2.317 6.79-3.216 9.955-4.963.648-.355 3.09-1.887 3.553-2.43 1.437-1.684.924-3.04 1.98-4.995 1.732-3.213 5.275-3.857 8.21-5.77 3.09-2.02 4.972-4.207 6.85-7.29 2.59-4.257 11.642-16.927 14.063-5.17 9.657 3.696 10.77-3.992 14.148-10.68 2.438-4.824 9.525-12.98 8.453-18.396zM107.496 270.667c-2.418 0-5.35-1.536-8.184-3.02-2.063-1.085-4.2-2.202-6.41-2.912-1.902-.61-4.173-.816-6.575-1.036-4.333-.396-8.24-.89-8.444-2.582a3.876 3.876 0 0 0-2.847-3.284c-.862-.228-1.698-.322-2.44-.4-.11-.015-.236-.027-.367-.044-.275-1.05-.972-1.974-1.954-2.484-2.55-1.33-2.517-1.694-2.244-4.525.22-2.286.517-5.417-1.126-9.01-1.226-2.685-3.39-4.126-4.968-5.18-.85-.566-1.583-1.058-1.983-1.57-.585-.755-.78-1.784-1.047-3.405-.196-1.18-.417-2.516-.924-3.894-.614-1.685-1.558-3.073-2.39-4.298-.874-1.285-1.63-2.396-1.675-3.35-.046-.924 1.22-2.845 2.057-4.117.427-.647.866-1.315 1.252-1.98 1.105-1.917 1.566-3.97 2.055-6.572.335-1.787 1.03-4.732 1.856-5.732h.067c.08 0 .158-.392.245-.382.188.03.374-.155.563-.155.84 0 1.658-.37 2.336-.883.83-.625 1.374-1.608 1.51-2.638.036-.283.08-.707.135-1.19.272-2.405.548-4.296.815-5.767.747.705 2.03 1.474 4.064 1.474.194 0 .403-.012.62-.03 4.82-.327 6.04-4.558 6.56-6.362.808.502 1.798 1.273 2.373 1.724.88.686 1.71 1.336 2.534 1.804l.183.103c2.553 1.458 3.076 1.625 6.226 1.992.41.05.793.07 1.202.07.446 0 .87-.027 1.282-.058.142-.01.28-.023.42-.028.305.367.565 1.06.865 1.846.77 2.034 1.933 5.108 5.702 6.88 2.52 1.183 5.975 2.364 8.748 3.31l.88.304c1.997.685 3.967.91 5.705 1.11 1.675.19 3.127.355 4.287.86.833.367 1.53.707 2.155 1.014 2.413 1.18 4.497 2.197 9.014 2.2 2.483 0 4.653-.41 6.57-.773 1.43-.272 2.667-.506 3.68-.506 1.005 0 2.253 0 3.984 3.293a3.873 3.873 0 0 0 3.357 2.07c1.624.033 2.165.5 2.204.592.08.182-.02 1.035-1.04 2.166-.475.53-.98.972-1.517 1.44-1.608 1.402-3.61 3.15-4.387 6.964-.324 1.593-.457 3.257-.584 4.872-.08 1.002-.154 1.95-.27 2.768-.148 1.08-.178 2.123-.202 3.134-.038 1.432-.074 2.785-.466 3.58-.212.432-.66.806-1.438 1.425-.84.674-1.885 1.51-2.767 2.75-.89 1.256-1.492 2.655-2.02 3.888l-.294.68a5.61 5.61 0 0 0-.543-.722 5.007 5.007 0 0 0-3.792-1.723c-2.82 0-5.383 2.248-6.85 6.015a63.733 63.733 0 0 0-1.028 2.888c-.78 2.287-1.395 4.096-2.74 5.883-.822 1.1-1.916 2.034-3.074 3.022-1.285 1.1-2.616 2.236-3.816 3.755-.84 1.063-1.39 2.05-1.832 2.84-.87 1.56-.903 1.62-2.506 1.854-.247.03-.507.047-.764.047z"/></svg>