<svg xmlns="http://www.w3.org/2000/svg" width="200" height="200" viewBox="0 0 200 200"><path fill="#FFF" d="M160 148H51V81h109v67zm-102-7h95V88H58v53z"/><path fill="#FFF" d="M78 88h2v56h-2z"/><path fill="#FFF" d="M79 116h75v2H79zM79 125h78v2H79zM80 133h74v2H80zM67.5 123.528c-1.84 0-3.334-1.495-3.334-3.333s1.495-3.334 3.333-3.334 3.333 1.497 3.333 3.335-1.496 3.333-3.334 3.333zm0-4.667a1.335 1.335 0 1 0 1.334 1.334c0-.734-.6-1.333-1.335-1.333zM67.5 106.528c-1.84 0-3.334-1.495-3.334-3.333S65.66 99.86 67.5 99.86s3.333 1.497 3.333 3.335-1.496 3.333-3.334 3.333zm0-4.667a1.335 1.335 0 1 0 1.334 1.334c0-.734-.6-1.333-1.335-1.333zM65 51h3v33h-3z"/><path fill="#FFF" d="M68 53.36c-3.31 0-6-2.69-6-6s2.69-6 6-6 6 2.692 6 6-2.692 6-6 6zm0-9c-1.655 0-3 1.347-3 3s1.345 3 3 3 3-1.345 3-3-1.347-3-3-3z"/></svg>