<svg xmlns="http://www.w3.org/2000/svg" width="8.374" height="11.458" viewBox="0 0 8.374 11.458"><g fill="#666"><path d="M4.187 1.976c-1.272 0-2.306 1.093-2.306 2.436S2.916 6.85 4.188 6.85c1.27 0 2.305-1.094 2.305-2.438 0-1.343-1.034-2.436-2.305-2.436zm0 4.216c-.93 0-1.685-.798-1.685-1.78 0-.983.755-1.782 1.685-1.782s1.685.8 1.685 1.78c0 .984-.756 1.782-1.685 1.782zm0 0"/><path d="M4.187.28C2.03.28.277 2.136.277 4.413c0 1.313 1.043 3.27 1.664 4.32.41.69.85 1.35 1.24 1.852.624.807.847.874 1.007.874.163 0 .374-.067.996-.875.39-.506.83-1.163 1.238-1.85.627-1.053 1.677-3.013 1.677-4.32C8.097 2.134 6.342.28 4.187.28zM5.99 8.223c-.8 1.376-1.538 2.305-1.808 2.542-.27-.23-.995-1.137-1.808-2.538C1.436 6.61.896 5.22.896 4.412c0-1.917 1.476-3.476 3.29-3.476s3.29 1.56 3.29 3.476c0 .803-.54 2.192-1.485 3.81zm0 0"/></g></svg>