<svg xmlns="http://www.w3.org/2000/svg" width="20.684" height="19.903" viewBox="0 0 20.684 19.903"><g fill="#666"><path d="M20.215 0H.47C.21 0 0 .21 0 .468v9.365c0 .26.21.47.47.47h19.746c.26 0 .47-.21.47-.47V.468a.47.47 0 0 0-.47-.468zm-.468 9.366H.937V.936h18.81v8.43zm0 0M20.215 10.872a.47.47 0 0 0-.47.47v.364h-3.013v-.366a.467.467 0 0 0-.934 0v.365h-3.016v-.365a.467.467 0 0 0-.936 0v.365h-3.01v-.365a.468.468 0 0 0-.937 0v.365H4.884v-.365a.467.467 0 0 0-.936 0v.365H.936v-.365a.468.468 0 0 0-.937 0v.832c0 .26.21.47.47.47h8.233v6.794a.47.47 0 0 0 .937 0V12.64h1.404v6.796a.47.47 0 0 0 .938 0V12.64h8.234c.26 0 .47-.208.47-.468v-.832a.47.47 0 0 0-.47-.468zm0 0"/></g></svg>