<svg xmlns="http://www.w3.org/2000/svg" width="200" height="200" viewBox="0 0 200 200"><path fill="#FFF" d="M157 153H42V78h115v75zm-108-7h101V85H49v61z"/><path fill="#FFF" d="M144.983 141.985H53.53v-52.45h91.453v52.45zm-90.452-1h89.453v-50.45H54.53v50.45zM100.2 82.65L73.28 54.693l1.44-1.388L99.8 79.35 115.635 52l1.73 1z"/><path fill="#FFF" d="M71.417 55.63c-2.048 0-3.714-1.666-3.714-3.713s1.666-3.713 3.714-3.713 3.713 1.666 3.713 3.713-1.665 3.713-3.713 3.713zm0-5.426c-.944 0-1.714.768-1.714 1.713 0 .944.77 1.713 1.714 1.713s1.713-.77 1.713-1.713c0-.945-.77-1.713-1.713-1.713zM118.167 54.713c-2.048 0-3.714-1.665-3.714-3.713s1.666-3.714 3.714-3.714c2.047 0 3.713 1.666 3.713 3.714s-1.666 3.713-3.713 3.713zm0-5.427c-.945 0-1.714.77-1.714 1.714s.77 1.713 1.714 1.713 1.713-.77 1.713-1.713-.77-1.714-1.713-1.714z"/></svg>