<?xml version="1.0" encoding="utf-8"?>
<!-- Generator: Adobe Illustrator 16.0.0, SVG Export Plug-In . SVG Version: 6.00 Build 0)  -->
<!DOCTYPE svg PUBLIC "-//W3C//DTD SVG 1.1//EN" "http://www.w3.org/Graphics/SVG/1.1/DTD/svg11.dtd">
<svg version="1.1" id="Capa_1" xmlns="http://www.w3.org/2000/svg" xmlns:xlink="http://www.w3.org/1999/xlink" x="0px" y="0px"
	 width="8.374px" height="12.775px" viewBox="0 0 8.374 12.775" enable-background="new 0 0 8.374 12.775" xml:space="preserve">
<g>
	<path fill="#666666" d="M3.556,12.775v-1.11C2.269,11.463,1.083,10.881,0,9.918l1.413-1.718c0.79,0.689,1.504,1.13,2.143,1.322
		V7.258c-1.064-0.273-1.845-0.64-2.341-1.101C0.719,5.696,0.471,5.032,0.471,4.165c0-0.866,0.284-1.58,0.851-2.143
		C1.889,1.46,2.633,1.124,3.556,1.012V0.267h1.61v0.775c1.013,0.143,2.022,0.562,3.024,1.262L6.945,4.097
		C6.307,3.641,5.714,3.337,5.167,3.186v2.188C6.261,5.658,7.069,6.038,7.59,6.514c0.522,0.476,0.784,1.15,0.784,2.021
		c0,0.872-0.292,1.591-0.874,2.159C6.917,11.26,6.139,11.6,5.167,11.711v1.064H3.556z M3.556,3.124
		C3.12,3.277,2.903,3.556,2.903,3.96c0,0.406,0.217,0.715,0.653,0.928V3.124z M5.942,8.657c0-0.212-0.056-0.39-0.167-0.531
		C5.663,7.983,5.46,7.852,5.167,7.729v1.87C5.683,9.437,5.942,9.123,5.942,8.657z"/>
</g>
</svg>
