<?xml version="1.0" encoding="utf-8"?>
<!-- Generator: Adobe Illustrator 16.0.0, SVG Export Plug-In . SVG Version: 6.00 Build 0)  -->
<!DOCTYPE svg PUBLIC "-//W3C//DTD SVG 1.1//EN" "http://www.w3.org/Graphics/SVG/1.1/DTD/svg11.dtd">
<svg version="1.1" id="Capa_1" xmlns="http://www.w3.org/2000/svg" xmlns:xlink="http://www.w3.org/1999/xlink" x="0px" y="0px"
	 width="204.491px" height="190.559px" viewBox="0 0 204.491 190.559" enable-background="new 0 0 204.491 190.559"
	 xml:space="preserve">
<g>
	<g>
		<path fill="#B3B3B3" d="M146.899,45.927H3.402C1.522,45.927,0,47.449,0,49.326v68.059c0,1.875,1.522,3.4,3.402,3.4h143.497
			c1.881,0,3.402-1.525,3.402-3.4V49.326C150.301,47.449,148.78,45.927,146.899,45.927L146.899,45.927z M143.497,113.982H6.805
			V52.725h136.692V113.982z M143.497,113.982"/>
		<path fill="#B3B3B3" d="M146.899,124.934c-1.881,0-3.402,1.52-3.402,3.396v2.656h-21.9v-2.656c0-1.877-1.516-3.396-3.396-3.396
			c-1.877,0-3.396,1.52-3.396,3.396v2.656H92.898v-2.656c0-1.877-1.518-3.396-3.401-3.396c-1.876,0-3.401,1.52-3.401,3.396v2.656
			H64.199v-2.656c0-1.877-1.521-3.396-3.401-3.396c-1.876,0-3.397,1.52-3.397,3.396v2.656H35.499v-2.656
			c0-1.877-1.521-3.396-3.396-3.396c-1.881,0-3.401,1.52-3.401,3.396v2.656H6.805v-2.656c0-1.877-1.525-3.396-3.402-3.396
			c-1.88,0-3.402,1.52-3.402,3.396v6.057c0,1.877,1.522,3.402,3.402,3.402h70.176v49.373c0,1.875,1.525,3.396,3.406,3.396
			c1.875,0,3.397-1.521,3.397-3.396v-49.373h66.517c1.881,0,3.402-1.525,3.402-3.402v-6.057
			C150.301,126.453,148.78,124.934,146.899,124.934L146.899,124.934z M146.899,124.934"/>
		<g>
			<path fill="#B3B3B3" d="M15.491,187.162c0,1.875,1.123,3.396,3.006,3.396c1.875,0,2.994-1.521,2.994-3.396V138h-6V187.162z"/>
			<path fill="#B3B3B3" d="M131.491,187.162c0,1.875,1.619,3.396,3.496,3.396c1.879,0,3.504-1.521,3.504-3.396V138h-7V187.162z"/>
		</g>
	</g>
	<line fill="none" stroke="#B3B3B3" stroke-width="2" stroke-miterlimit="10" x1="1.491" y1="35" x2="148.491" y2="35"/>
	<line fill="none" stroke="#B3B3B3" stroke-width="2" stroke-miterlimit="10" x1="159.491" y1="42" x2="159.491" y2="113"/>
	<g>
		<text transform="matrix(1 0 0 1 50.9404 22.0454)" fill="#4D4D4D" font-family="'Montserrat-Regular'" font-size="11.2697">12 MTS</text>
	</g>
	<g>
		<text transform="matrix(1 0 0 1 169.272 81.2114)" fill="#4D4D4D" font-family="'Montserrat-Regular'" font-size="11.2697">4 MTS</text>
	</g>
</g>
</svg>
