<?xml version="1.0" encoding="utf-8"?>
<!-- Generator: Adobe Illustrator 16.0.0, SVG Export Plug-In . SVG Version: 6.00 Build 0)  -->
<!DOCTYPE svg PUBLIC "-//W3C//DTD SVG 1.1//EN" "http://www.w3.org/Graphics/SVG/1.1/DTD/svg11.dtd">
<svg version="1.1" id="Capa_1" xmlns="http://www.w3.org/2000/svg" xmlns:xlink="http://www.w3.org/1999/xlink" x="0px" y="0px"
	 width="9.598px" height="8.754px" viewBox="0 0 9.598 8.754" enable-background="new 0 0 9.598 8.754" xml:space="preserve">
<path fill="#666666" d="M9.254,2.373L7.049,0.165C6.943,0.059,6.803,0,6.654,0C6.536,0,6.421,0.038,6.327,0.106L6.265,0.142
	l-2.837,0.39C3.363,0.534,3.3,0.544,3.239,0.562l-0.1-0.093C3.136,0.464,3.131,0.46,3.127,0.456C3.026,0.37,2.897,0.321,2.763,0.321
	c-0.149,0-0.29,0.058-0.395,0.165L0.163,2.694c-0.197,0.198-0.218,0.514-0.048,0.734c0.005,0.008,0.012,0.016,0.019,0.022
	L1.08,4.507c0.03,0.127,0.072,0.259,0.125,0.394C0.976,5.178,0.99,5.59,1.249,5.849c0.001,0,0.001,0,0.001,0l0.003,0.004
	c0.13,0.129,0.301,0.202,0.484,0.205C1.734,6.087,1.731,6.115,1.731,6.144c0,0.188,0.073,0.365,0.206,0.498L1.94,6.644l0,0
	c0.133,0.133,0.311,0.207,0.499,0.207c0.022,0,0.043-0.001,0.065-0.003c0.002,0.003,0.004,0.005,0.006,0.007
	c0,0.01-0.001,0.019-0.001,0.028c0,0.188,0.073,0.365,0.206,0.498l0.003,0.002L2.72,7.386c0.133,0.133,0.309,0.207,0.498,0.207
	l0.001-0.001l0.067,0.067C3.294,7.835,3.365,8,3.491,8.125c0,0,0.001,0.001,0.003,0.003L3.496,8.13
	c0.125,0.125,0.29,0.196,0.465,0.204L4.146,8.52C4.298,8.67,4.5,8.754,4.715,8.754c0.248,0,0.479-0.112,0.631-0.306
	C5.43,8.343,5.483,8.222,5.505,8.097l0.116,0.117c0.154,0.153,0.367,0.242,0.583,0.242c0.179,0,0.354-0.061,0.494-0.17
	c0.154-0.123,0.258-0.296,0.292-0.489c0.149,0.128,0.341,0.2,0.537,0.2c0.179,0,0.354-0.061,0.493-0.17
	c0.18-0.143,0.291-0.356,0.304-0.585c0.013-0.213-0.06-0.422-0.2-0.58c0.13-0.023,0.252-0.077,0.354-0.159
	c0.181-0.142,0.292-0.355,0.305-0.585c0.013-0.229-0.072-0.453-0.234-0.616L8.251,5.003c0.011-0.011,0.021-0.022,0.031-0.035
	c0.56-0.713,0.861-1.244,0.973-1.714C9.263,3.24,9.272,3.224,9.278,3.208l0.062-0.156C9.467,2.835,9.435,2.554,9.254,2.373
	L9.254,2.373z M1.75,5.678c-0.083,0-0.166-0.032-0.229-0.095L1.518,5.58c-0.126-0.127-0.126-0.332,0-0.458l0.253-0.253
	C1.834,4.805,1.917,4.773,2,4.773c0.083,0,0.166,0.032,0.229,0.096l0.003,0.003c0.126,0.126,0.126,0.331,0,0.458L1.979,5.583
	C1.916,5.646,1.833,5.678,1.75,5.678L1.75,5.678z M2.669,6.376C2.605,6.439,2.522,6.471,2.439,6.471
	c-0.083,0-0.166-0.032-0.229-0.095L2.208,6.373c-0.126-0.126-0.126-0.331,0-0.458l0.599-0.6C2.87,5.252,2.953,5.22,3.036,5.22
	c0.083,0,0.166,0.032,0.229,0.095l0.004,0.003c0.126,0.126,0.126,0.332,0,0.458L2.669,6.376z M3.446,7.117
	C3.383,7.18,3.3,7.211,3.217,7.211c-0.083,0-0.166-0.032-0.229-0.095L2.985,7.113c-0.126-0.126-0.126-0.331,0-0.458l0.388-0.388
	C3.436,6.204,3.52,6.172,3.601,6.172c0.084,0,0.167,0.032,0.229,0.095L3.834,6.27c0.126,0.126,0.126,0.333,0,0.458L3.446,7.117z
	 M3.992,7.954c-0.083,0-0.166-0.032-0.229-0.094L3.76,7.856c-0.126-0.126-0.126-0.332,0-0.458l0.176-0.177
	C4,7.158,4.083,7.126,4.166,7.126s0.166,0.032,0.229,0.095l0.004,0.004c0.126,0.126,0.126,0.332,0,0.458L4.221,7.86
	C4.158,7.922,4.075,7.954,3.992,7.954L3.992,7.954z M5.048,8.213c-0.085,0.106-0.209,0.16-0.333,0.16
	c-0.108,0-0.218-0.042-0.299-0.124L4.382,8.217C4.421,8.192,4.457,8.162,4.49,8.129l0.177-0.177C4.791,7.828,4.858,7.668,4.87,7.505
	l0.136,0.136C5.159,7.794,5.183,8.042,5.048,8.213L5.048,8.213z M8.282,5.571c0.176,0.177,0.164,0.474-0.038,0.634
	c-0.076,0.06-0.166,0.088-0.257,0.088c-0.114,0-0.229-0.045-0.315-0.13L6.134,4.624c-0.04-0.04-0.091-0.06-0.145-0.06
	c-0.051,0-0.104,0.02-0.145,0.06c-0.081,0.081-0.081,0.211,0,0.293l1.978,1.977c0.176,0.177,0.164,0.474-0.038,0.633
	c-0.075,0.06-0.166,0.089-0.257,0.089c-0.114,0-0.229-0.046-0.314-0.131L5.246,5.518C5.205,5.476,5.152,5.456,5.099,5.456
	s-0.106,0.02-0.147,0.062c-0.08,0.08-0.08,0.208,0,0.289L6.5,7.353C6.676,7.53,6.664,7.827,6.462,7.986
	c-0.075,0.06-0.166,0.088-0.257,0.088c-0.114,0-0.229-0.045-0.315-0.131L4.292,6.345C4.263,6.219,4.201,6.099,4.104,6.001L4.1,5.998
	c-0.11-0.11-0.251-0.179-0.403-0.199c0.03-0.079,0.047-0.164,0.047-0.251c0-0.188-0.074-0.365-0.206-0.499l-0.001,0L3.534,5.045
	C3.4,4.913,3.224,4.839,3.036,4.839c-0.124,0-0.244,0.034-0.349,0.092C2.657,4.81,2.594,4.696,2.503,4.604L2.501,4.602L2.499,4.6
	C2.366,4.467,2.188,4.393,2,4.393c-0.188,0-0.365,0.074-0.499,0.207l0,0.001C1.477,4.524,1.456,4.448,1.439,4.374
	C1.433,4.347,1.423,4.323,1.407,4.302l-0.99-1.104C0.363,3.126,0.37,3.027,0.433,2.963l2.205-2.209
	C2.672,0.72,2.718,0.703,2.764,0.703c0.041,0,0.082,0.013,0.116,0.042l0.018,0.017c-0.148,0.145-0.239,0.347-0.239,0.57
	c0,0.44,0.357,0.799,0.797,0.8L4.86,2.149L8.282,5.571z M9,2.876L8.924,3.067C8.908,3.088,8.897,3.113,8.891,3.139
	C8.784,3.63,8.407,4.195,7.982,4.734C7.445,4.196,5.021,1.772,5.021,1.772L3.458,1.751c-0.23,0-0.42-0.189-0.42-0.42
	c0-0.23,0.189-0.42,0.42-0.42L6.39,0.508l0.001,0l0.147-0.084c0.033-0.029,0.075-0.043,0.116-0.043c0.046,0,0.091,0.018,0.126,0.052
	l2.205,2.209C9.047,2.705,9.054,2.806,9,2.876L9,2.876z M9,2.876"/>
</svg>
