<?xml version="1.0" encoding="utf-8"?>
<!-- Generator: Adobe Illustrator 16.0.0, SVG Export Plug-In . SVG Version: 6.00 Build 0)  -->
<!DOCTYPE svg PUBLIC "-//W3C//DTD SVG 1.1//EN" "http://www.w3.org/Graphics/SVG/1.1/DTD/svg11.dtd">
<svg version="1.1" id="Capa_1" xmlns="http://www.w3.org/2000/svg" xmlns:xlink="http://www.w3.org/1999/xlink" x="0px" y="0px"
	 width="30.597px" height="21.153px" viewBox="0 0 30.597 21.153" enable-background="new 0 0 30.597 21.153" xml:space="preserve">
<g>
	<path fill="#FFFFFF" stroke="#FFFFFF" stroke-width="0.25" stroke-miterlimit="10" d="M11.584,2.495h3.934V2.208
		c0-0.089-0.072-0.162-0.161-0.162h-3.612c-0.04,0-0.08,0.015-0.103,0.04c-0.042,0.042-0.058,0.081-0.058,0.122V2.495z"/>
	<path fill="#FFFFFF" stroke="#FFFFFF" stroke-width="0.25" stroke-miterlimit="10" d="M28.824,6.981"/>
	<path fill="#FFFFFF" stroke="#FFFFFF" stroke-width="0.25" stroke-miterlimit="10" d="M30.1,7.055
		c-0.243-0.396-0.699-0.623-1.254-0.623H8.899c-0.963,0-2.052,0.681-2.48,1.551l-5.363,10.95c-0.245,0.497-0.245,1.009-0.001,1.404
		c0.244,0.397,0.703,0.625,1.258,0.625h19.941c0.975,0,2.064-0.684,2.48-1.552l5.363-10.949C30.342,7.962,30.342,7.451,30.1,7.055z
		 M29.619,8.223l-5.364,10.95c-0.331,0.692-1.235,1.252-2,1.252H2.313c-0.766,0-1.116-0.564-0.778-1.252l5.365-10.95
		c0.336-0.686,1.234-1.252,2-1.252h19.947C29.613,6.971,29.957,7.537,29.619,8.223z"/>
	<g>
		<path fill="#FFFFFF" stroke="#FFFFFF" stroke-width="0.25" stroke-miterlimit="10" d="M0.713,18.009
			c-0.15,0-0.272-0.122-0.272-0.274V3.963c0-0.58,0.468-1.052,1.042-1.052H9.44c0.274,0,0.499-0.226,0.499-0.504V1.354
			c0-0.58,0.466-1.052,1.042-1.052h4.946c0.575,0,1.043,0.473,1.043,1.052v0.846c0,0.277,0.222,0.503,0.497,0.503h8.226
			c0.572,0,1.041,0.473,1.041,1.053v2.104c0,0.152-0.121,0.274-0.272,0.274c-0.15,0-0.271-0.122-0.271-0.274V3.757
			c0-0.277-0.224-0.503-0.497-0.503h-8.226c-0.574,0-1.042-0.473-1.042-1.053V1.354c0-0.278-0.224-0.503-0.499-0.503H10.98
			c-0.275,0-0.499,0.225-0.499,0.503v1.052c0,0.581-0.468,1.053-1.042,1.053H1.483c-0.275,0-0.499,0.226-0.499,0.503v13.771
			C0.985,17.887,0.863,18.009,0.713,18.009z"/>
	</g>
</g>
</svg>
