<?xml version="1.0" encoding="utf-8"?>
<!-- Generator: Adobe Illustrator 16.0.0, SVG Export Plug-In . SVG Version: 6.00 Build 0)  -->
<!DOCTYPE svg PUBLIC "-//W3C//DTD SVG 1.1//EN" "http://www.w3.org/Graphics/SVG/1.1/DTD/svg11.dtd">
<svg version="1.1" id="Capa_1" xmlns="http://www.w3.org/2000/svg" xmlns:xlink="http://www.w3.org/1999/xlink" x="0px" y="0px"
	 width="30.274px" height="29.179px" viewBox="0 0 30.274 29.179" enable-background="new 0 0 30.274 29.179" xml:space="preserve">
<g>
	<g>
		<path fill="#FFFFFF" d="M23.265,16.866c-2.412,0-4.375-1.963-4.375-4.375s1.963-4.375,4.375-4.375s4.375,1.963,4.375,4.375
			S25.677,16.866,23.265,16.866z M23.265,9.866c-1.447,0-2.625,1.178-2.625,2.625s1.178,2.625,2.625,2.625s2.625-1.178,2.625-2.625
			S24.712,9.866,23.265,9.866z"/>
	</g>
	<g>
		<path fill="#FFFFFF" d="M6.64,26.491c-2.412,0-4.375-1.963-4.375-4.375s1.963-4.375,4.375-4.375s4.375,1.963,4.375,4.375
			S9.052,26.491,6.64,26.491z M6.64,19.491c-1.447,0-2.625,1.178-2.625,2.625s1.178,2.625,2.625,2.625s2.625-1.178,2.625-2.625
			S8.087,19.491,6.64,19.491z"/>
	</g>
	<g>
		<path fill="#FFFFFF" d="M6.64,10.741c-2.412,0-4.375-1.963-4.375-4.375S4.228,1.991,6.64,1.991s4.375,1.963,4.375,4.375
			S9.052,10.741,6.64,10.741z M6.64,3.741c-1.447,0-2.625,1.178-2.625,2.625S5.192,8.991,6.64,8.991s2.625-1.178,2.625-2.625
			S8.087,3.741,6.64,3.741z"/>
	</g>
	<g>
		
			<rect x="10.003" y="8.371" transform="matrix(0.93 0.3677 -0.3677 0.93 4.4545 -4.8897)" fill="#FFFFFF" width="10.114" height="1.75"/>
	</g>
	<g>
		
			<rect x="14.404" y="11.449" transform="matrix(0.5627 0.8267 -0.8267 0.5627 21.2876 -4.9043)" fill="#FFFFFF" width="1.749" height="12.438"/>
	</g>
</g>
</svg>
