<?xml version="1.0" encoding="utf-8"?>
<!-- Generator: Adobe Illustrator 16.0.0, SVG Export Plug-In . SVG Version: 6.00 Build 0)  -->
<!DOCTYPE svg PUBLIC "-//W3C//DTD SVG 1.1//EN" "http://www.w3.org/Graphics/SVG/1.1/DTD/svg11.dtd">
<svg version="1.1" id="Capa_1" xmlns="http://www.w3.org/2000/svg" xmlns:xlink="http://www.w3.org/1999/xlink" x="0px" y="0px"
	 width="38.962px" height="22.815px" viewBox="0 0 38.962 22.815" enable-background="new 0 0 38.962 22.815" xml:space="preserve">
<path fill="#FFFFFF" d="M38.947,17.924c0.049-0.383-0.029-0.691-0.092-0.939c-0.041-0.16-0.074-0.285-0.074-0.418
	c0-0.24-0.115-0.416-0.191-0.529c-0.002-0.002-0.002-0.002-0.002-0.004c-0.891-3.698-2.721-6.814-5.299-9.021
	c0.563-0.734,0.898-1.652,0.898-2.647C34.187,1.959,32.228,0,29.822,0c-2.408,0-4.365,1.959-4.365,4.365
	c0,2.407,1.957,4.365,4.365,4.365c0.977,0,1.881-0.322,2.609-0.868l-0.072,0.085c2.408,2.031,4.119,4.938,4.953,8.405
	c0.025,0.162,0.1,0.291,0.162,0.385c0.014,0.184,0.049,0.328,0.084,0.492H26.794c-0.047-0.082-0.096-0.229-0.146-0.344
	c-0.65-1.502-1.494-2.74-2.258-3.674c0.846-1.638,1.721-2.856,2.672-3.717L26.179,8.52c-0.979,0.886-1.871,2.082-2.721,3.643
	c-0.434-0.445-0.771-0.743-0.932-0.878c0.561-0.734,0.896-1.651,0.896-2.646c0-2.407-1.959-4.366-4.366-4.366
	c-2.407,0-4.365,1.959-4.365,4.366c0,2.406,1.958,4.365,4.365,4.365c1.004,0,1.932-0.343,2.67-0.916l-0.117,0.146
	c0.025,0.02,2.438,1.954,3.832,5.17c0.869,2.006,1.209,3.361,1.342,4.096h-14.26c-0.003-0.746,0.146-2.215,1.12-4.049
	c1.314-2.475,2.637-3.67,2.649-3.682l-0.695-0.785c-1-2.313-2.428-4.315-4.146-5.807c-0.033-0.028-0.067-0.057-0.101-0.085
	c0.563-0.734,0.896-1.651,0.896-2.646c0-2.407-1.958-4.365-4.365-4.365c-2.406,0-4.365,1.958-4.365,4.365
	c0,2.406,1.959,4.365,4.365,4.365c0.997,0,1.917-0.337,2.652-0.901l-0.103,0.127c0.054,0.043,0.106,0.088,0.158,0.133
	c1.636,1.419,2.987,3.354,3.914,5.602c-0.552,0.668-1.287,1.682-2.021,3.064c-0.084,0.158-0.162,0.309-0.236,0.473H1.321
	c0.124-2.629,1.478-5.406,3.827-7.754l-0.93-0.932C1.576,11.267,0.078,14.401,0,17.454v0.016c0,0.164,0.035,0.303,0.061,0.406
	c0.008,0.031,0.02,0.074,0.021,0.094v0.656h11.631c-0.712,2.137-0.459,3.58-0.445,3.656l0.1,0.533h16.814v-0.656
	c0-0.059-0.012-1.232-0.873-3.615H38.96L38.947,17.924z M29.822,7.416c-1.684,0-3.051-1.368-3.051-3.051
	c0-1.682,1.367-3.05,3.051-3.05c1.682,0,3.049,1.368,3.049,3.05C32.871,6.048,31.503,7.416,29.822,7.416z M19.058,11.688
	c-1.683,0-3.051-1.368-3.051-3.05c0-1.683,1.368-3.051,3.051-3.051c1.682,0,3.051,1.368,3.051,3.051
	C22.109,10.32,20.74,11.688,19.058,11.688z M7.883,7.498c-1.682,0-3.05-1.368-3.05-3.05c0-1.683,1.368-3.051,3.05-3.051
	c1.683,0,3.051,1.368,3.051,3.051C10.934,6.13,9.565,7.498,7.883,7.498z"/>
</svg>
