<?xml version="1.0" encoding="utf-8"?>
<!-- Generator: Adobe Illustrator 16.0.0, SVG Export Plug-In . SVG Version: 6.00 Build 0)  -->
<!DOCTYPE svg PUBLIC "-//W3C//DTD SVG 1.1//EN" "http://www.w3.org/Graphics/SVG/1.1/DTD/svg11.dtd">
<svg version="1.1" id="Capa_1" xmlns="http://www.w3.org/2000/svg" xmlns:xlink="http://www.w3.org/1999/xlink" x="0px" y="0px"
	 width="30.274px" height="29.179px" viewBox="0 0 30.274 29.179" enable-background="new 0 0 30.274 29.179" xml:space="preserve">
<g>
	<path fill="#FFFFFF" d="M14.851,2.256C8.05,2.256,2.518,7.789,2.518,14.59c0,6.8,5.532,12.333,12.333,12.333
		S27.183,21.39,27.183,14.59C27.183,7.789,21.652,2.256,14.851,2.256L14.851,2.256z M14.851,25.306
		c-5.908,0-10.716-4.808-10.716-10.716S8.943,3.874,14.851,3.874S25.566,8.682,25.566,14.59S20.759,25.306,14.851,25.306
		L14.851,25.306z M14.851,25.306"/>
	<path fill="#FFFFFF" d="M14.851,7.892c-2.169,0-3.934,1.765-3.934,3.934c0,0.446,0.362,0.809,0.809,0.809s0.809-0.362,0.809-0.809
		c0-1.277,1.04-2.316,2.316-2.316c1.277,0,2.316,1.039,2.316,2.316s-1.039,2.316-2.316,2.316c-0.446,0-0.809,0.362-0.809,0.809
		v2.817c0,0.447,0.362,0.809,0.809,0.809s0.809-0.361,0.809-0.809v-2.093c1.781-0.374,3.125-1.958,3.125-3.85
		C18.785,9.656,17.019,7.892,14.851,7.892L14.851,7.892z M14.851,7.892"/>
	<path fill="#FFFFFF" d="M14.852,19.137c-0.561,0-1.016,0.454-1.016,1.016c0,0.561,0.455,1.015,1.016,1.015
		c0.56,0,1.013-0.454,1.013-1.015C15.865,19.591,15.412,19.137,14.852,19.137L14.852,19.137z M14.852,19.137"/>
</g>
</svg>
