<?xml version="1.0" encoding="utf-8"?>
<!-- Generator: Adobe Illustrator 16.0.0, SVG Export Plug-In . SVG Version: 6.00 Build 0)  -->
<!DOCTYPE svg PUBLIC "-//W3C//DTD SVG 1.1//EN" "http://www.w3.org/Graphics/SVG/1.1/DTD/svg11.dtd">
<svg version="1.1" id="Capa_1" xmlns="http://www.w3.org/2000/svg" xmlns:xlink="http://www.w3.org/1999/xlink" x="0px" y="0px"
	 width="30.274px" height="29.179px" viewBox="0 0 30.274 29.179" enable-background="new 0 0 30.274 29.179" xml:space="preserve">
<g>
	<path fill="#FFFFFF" d="M29.343,0.319H0.961c-0.372,0-0.673,0.301-0.673,0.672v13.462c0,0.371,0.301,0.673,0.673,0.673h28.382
		c0.373,0,0.674-0.302,0.674-0.673V0.991C30.017,0.62,29.716,0.319,29.343,0.319L29.343,0.319z M28.671,13.78H1.634V1.664h27.038
		V13.78z M28.671,13.78"/>
	<path fill="#FFFFFF" d="M29.343,15.946c-0.371,0-0.672,0.301-0.672,0.672v0.525h-4.332v-0.525c0-0.371-0.301-0.672-0.672-0.672
		s-0.672,0.301-0.672,0.672v0.525h-4.332v-0.525c0-0.371-0.301-0.672-0.674-0.672c-0.371,0-0.672,0.301-0.672,0.672v0.525h-4.332
		v-0.525c0-0.371-0.301-0.672-0.673-0.672c-0.371,0-0.672,0.301-0.672,0.672v0.525H7.31v-0.525c0-0.371-0.301-0.672-0.672-0.672
		c-0.372,0-0.673,0.301-0.673,0.672v0.525H1.634v-0.525c0-0.371-0.302-0.672-0.673-0.672c-0.372,0-0.673,0.301-0.673,0.672v1.198
		c0,0.371,0.301,0.673,0.673,0.673h11.837v9.766c0,0.371,0.302,0.672,0.674,0.672c0.371,0,0.672-0.301,0.672-0.672v-9.766h2.018
		v9.766c0,0.371,0.301,0.672,0.672,0.672s0.674-0.301,0.674-0.672v-9.766h11.836c0.373,0,0.674-0.302,0.674-0.673v-1.198
		C30.017,16.247,29.716,15.946,29.343,15.946L29.343,15.946z M29.343,15.946"/>
</g>
</svg>
