<?xml version="1.0" encoding="utf-8"?>
<!-- Generator: Adobe Illustrator 16.0.0, SVG Export Plug-In . SVG Version: 6.00 Build 0)  -->
<!DOCTYPE svg PUBLIC "-//W3C//DTD SVG 1.1//EN" "http://www.w3.org/Graphics/SVG/1.1/DTD/svg11.dtd">
<svg version="1.1" id="Capa_1" xmlns="http://www.w3.org/2000/svg" xmlns:xlink="http://www.w3.org/1999/xlink" x="0px" y="0px"
	 width="22.25px" height="37.203px" viewBox="0 0 22.25 37.203" enable-background="new 0 0 22.25 37.203" xml:space="preserve">
<g>
	<g>
		<g>
			<path fill="none" stroke="#FFFFFF" stroke-linecap="round" stroke-linejoin="round" stroke-miterlimit="10" d="M0.965,35.792
				V18.744H7.91l2.777,10.771l2.736-10.771h6.959v17.048h-4.352v-13.42l-3.41,13.42H8.713l-3.688-13.42v13.42H0.965z"/>
		</g>
		<g>
			<path fill="none" stroke="#FFFFFF" stroke-linecap="round" stroke-linejoin="round" stroke-miterlimit="10" d="M0.965,17.638
				V0.59H7.91l2.777,10.771L13.423,0.59h6.959v17.048h-4.352V4.219l-3.41,13.419H8.713L5.025,4.219v13.419H0.965z"/>
		</g>
		<g>
			<path fill="#FFFFFF" d="M3.412,20.337c0,0,4.678,0,4.684,0c-0.035,0.04,0.202,0.23,0.231,0.29
				c0.543,1.084,3.059,2.015,3.674,0.504c0.506-1.245-0.625-1.771-1.669-1.973c-2.379-0.459-6.359-0.483-6.337-3.827
				c0.006-0.808,0.184-1.717,0.712-2.354c0.471-0.568,1.15-1.002,2.037-1.3c2.295-0.771,5.757-0.8,7.83,0.612
				c1.035,0.706,1.578,1.647,1.631,2.824c-0.006-0.098-3.953,0.058-4.334,0.113c-0.188-0.934-0.684-1.379-1.613-1.566
				c-0.717-0.146-1.94-0.047-2.192,0.793c-0.144,0.475,0.372,1.025,0.776,1.205c0.58,0.257,1.281,0.35,1.9,0.465
				c1.046,0.194,2.115,0.268,3.156,0.486c2.156,0.451,3.021,2.347,2.721,4.332c-0.232,1.554-1.475,2.611-2.93,3.088
				c-0.949,0.312-2.131,0.469-3.546,0.469c-2.063,0-3.646-0.375-4.751-1.125C4.838,22.998,3.602,21.602,3.412,20.337z"/>
		</g>
	</g>
</g>
</svg>
