<?xml version="1.0" encoding="utf-8"?>
<!-- Generator: Adobe Illustrator 16.0.0, SVG Export Plug-In . SVG Version: 6.00 Build 0)  -->
<!DOCTYPE svg PUBLIC "-//W3C//DTD SVG 1.1//EN" "http://www.w3.org/Graphics/SVG/1.1/DTD/svg11.dtd">
<svg version="1.1" id="Capa_1" xmlns="http://www.w3.org/2000/svg" xmlns:xlink="http://www.w3.org/1999/xlink" x="0px" y="0px"
	 width="444.566px" height="390.833px" viewBox="0 0 444.566 390.833" enable-background="new 0 0 444.566 390.833"
	 xml:space="preserve">
<g>
	<path fill="#B3B3B3" d="M98.153,196.495c-1.555-1.954-2.932-4.148-5.09-5.275c-2.049-1.072-4.633-1.359-6.843-2.527
		c-4.401-2.325-6.173-6.065-10.569-1.469c-9.011,9.413-12.235-14.894-13.782-20.315c-0.706-2.467-0.222-10.083-2.274-11.604
		c-3.003-2.225-8.812,1.686-12.3,1.922c-8.406,0.565-19.029-3.968-20.875-12.509c-0.956-4.433,0.884-8.498-2.22-12.317
		c-2.581-3.18-6.563-3.44-9.507-5.81c-3.772,2.915-8.921,7.747-10.461,12.575c-2.085,6.539,2.674,9.899,2.787,15.963
		c0.099,5.309-3.11,9.825-2.771,15.962c0.389,7.051-1.105,7.836-2.963,13.728c-2.75,8.709-1.886,25.772,10.599,24.44
		c4.948-0.527,9.354-4.653,13.862-6.262c4.985-1.778,9.351-4.72,14.591-6.246c3.949-1.15,12.211-1.727,16.048,0.044
		c2.585,1.192,1.205,0.53,1.104,2.907c-0.072,1.691,0.164,3.338,0.148,5.041c-0.021,2.248-0.515,3.912-1.529,5.887
		c-1.861,3.632-4.57,7.483-3.294,11.78c1.182,3.979,4.141,7.176,5.164,11.399c0.854,3.525,3.413,4.073,5.563,6.724
		c4.394,5.415-1.361,16.355,6.425,19.301c0.946,0.36,2.101,0.037,3.041,0.369c2.329,0.814,1.348,0.274,2.493,1.895
		c3.035,4.291,4.359,4.365,10.247,4.365c3.605,0,6.276,0.82,9.449,2.398c3.141,1.556,6.476,4.779,10.021,5.22
		c4.874,0.602,6.284-4.084,9.532-6.366c4.829-3.388,6.952-7.19,9.858-12.229c1.115-1.931,1.248-4.679,2.885-6.295
		c2.411-2.38,3.403-0.893,5.672,0.218c2.536,1.237,1.615,1.35,3.319-1.059c2.23-3.152,6.042-6.333,10.069-5.034
		c4.609,1.491,5.359,7.047,8.803,9.841c9.642,7.822,25.951,5.578,24.498,21.342c-0.818,8.892,0.443,7.19,6.242,13.359
		c4.278,4.55,3.607,8.418,4.999,14.4c2.625,11.288,7.2,21.184,0.708,32.099c-2.801,4.705-10.521,9.248-5.062,14.594
		c4.943,4.839,16.429,0.802,22.239,5.169c3.825,2.875,3.307,4.501,3.473,9.216c0.038,1.104-1.032,4.191-0.725,4.838
		c1.297,2.744,2.67,1.186,4.195,2.778c3.81,3.984,9.622,10.096,16.515,7.74c4.927,11.776,19.356,17.869,26.355,4.77
		c5.797-10.854,2.479-23.968,5.729-35.362c1.835-6.427,3.462-9.645,8.83-13.395c3.558-2.484,9.219-4.259,11.431-7.982
		c5.084-8.558-3.582-5.14-5.565-10.03c-0.661-1.633,3.204-14.541,4.022-16.516c1.409-3.393,3.9-4.38,6.075-7.651
		c1.984-2.982,1.896-7.333,3.8-10.221c3.011-4.578,18.667-10.664,17.314-0.986c2.021,0.402,5.007,0.515,6.66,1.651
		c3.026,2.074-0.148,5.532,5.71,5.442c6.061-0.091,8.148-7.436,11.938-10.268c4.967-3.715,10.298-2.049,14.628-6.923
		c3.085-3.474,6.73-8.718,9.543-12.667c2.986-4.194,5.208-9.96,11.085-12.007c8.09-2.815,6.394,4.164,13.17,4.37
		c7.071,0.22,7.673-7.786,9.545-12.507c1.443-3.639,6.98-10.336,6.445-13.899c-0.353-2.354-3.16-2.194-4.188-4.113
		c-1.166-2.174-1.03-4.82-2.088-6.987c-1.927-3.948-3.908-5.71-8.139-7.773c-8.906-4.346-18.393-8.558-16.131-20.667
		c1.608-8.614,9.498-15.262,12.492-22.902c3.678-9.386,3.489-14.44-2.848-22.206c3.054-3.288-5.014-8.191-5.483-13.035
		c-0.676-6.992,3.285-11.192,8.312-15.249c5.26-4.247,11.395-6.923,16.676-11.086c5.328-4.201,9.641-9.267,14.436-14.068
		c9.523-9.544,14.866-17.975,18.336-31.219c1.51-5.767,2.643-11.599,4.166-17.366c1.193-4.521,1.563-12.617,4.127-16.519
		c3.77-5.732,8.883-4.951,3.216-13.325c-4.398-6.493-8.493-7.203-15.813-7.636c-8.307-0.491-11.319-1.234-17.87,3.644
		c-5.388,4.013-10.205,5.259-16.154,8.311c-6.23,3.198-9.397,8.468-16.656,8.868c-4.822,0.266-11.207-2.683-15.092,0.868
		c-4.179,3.819-2.179,11.2-1.527,15.789c0.864,6.078,0.03,8.862-1.946,14.035c-2.301,6.042-4.623,12.058-4.336,18.583
		c0.308,6.945,3.566,8.984-1.925,14.071c-3.775,3.493-9.937,5.956-14.228,8.678c-7.262,4.604-6.641,3.76-10.222-3.315
		c-2.342-4.627-17.832-24.944-18.037-9.718c-0.08,5.973,7.021,8.889,6.935,15.963c-0.079,6.476-2.926,13.31-3.468,19.974
		c-1.089,13.401-1.284,22.1-7.791,34.162c-5.918,10.963-17.511,19.553-29.684,20.835c-6.784,0.714-14.145,0.346-20.824,0.681
		c-5.752,0.288-10.847-1.847-16.656-1.391c-7.397,0.58-8.372,3.331-9.717,9.716c-1.477,7.01-1.63,9.015-8.483,13.049
		c-2.357,1.39-12.731,7.652-14.608,6.585c-4.297-2.44,0.594-13.101,1.581-16.164c3.57-11.099,2.966-21.864-9.027-27.931
		c-9.765-4.94-15.983,10.749-22.38,17.347c-4.591,4.733-8.836,7.375-6.975,14.209c1.239,4.546,7.142,11.753,5.099,17.23
		c-1.982,5.313-6.905,4.289-11.356,3.479c-4.588-0.836-7.775,4.271-12.454,2.327c-1.24-0.514-1.686-1.719-2.876-2.35
		c-4.988-2.649-8.692-0.809-13.91-0.568c-5.427,0.251-10.022-1.893-15.186-2.834c-4.872-0.89-9.603-2.836-14.204-4.598
		C100.532,199.237,99.293,197.931,98.153,196.495z"/>
	<path fill="#E6E6E6" d="M303.46,268.965c0.862-0.302,1.607-0.561,2.213-1.155c1.006-0.991,0.979-1.901,0.941-3.052
		c-0.032-1.039-0.068-2.223,0.729-3.402c0.92-1.358,5.283-3.232,6.103-3.513c0.497-0.169,1.131-0.228,1.74-0.283
		c0.436-0.039,1.081-0.099,1.328-0.196c0.293-0.24,1.144-1.194,1.299-1.468c-0.1,0.174-0.167,0.583,0.069,0.95l0.853-0.535
		l-0.096-1.051h0.001l0.854-0.092l0.036,0.109c0.966,0.147,1.91,0.632,2.831,1.109c1.013,0.522,2.058,1.065,2.732,0.887
		c0.529-0.139,0.915-0.462,1.177-0.992c0.626-1.257,0.396-3.288-0.134-4.561c-1.027-2.463-1.196-2.564-4.454-2.669l-0.959-0.029
		l-0.048-0.955c-0.044-0.878-0.005-1.78,0.028-2.652c0.078-1.854,0.159-3.772-0.665-4.588c-0.452-0.443-1.271-0.639-2.421-0.575
		l-0.535,0.027l-0.335-0.42c-0.35-0.439-0.803-0.884-1.282-1.353c-0.953-0.935-2.034-1.992-2.592-3.355l-0.322-0.801l0.724-0.467
		c0.668-0.431,1.565-0.745,2.518-1.076c1.037-0.366,2.46-0.86,2.798-1.37c0.405-0.609,0.217-1.846,0.035-3.04
		c-0.24-1.578-0.488-3.21,0.396-4.429c2.481-3.426,13.648-1.896,16.198-0.526c1.168,0.627,1.633,1.679,1.968,2.445
		c0.129,0.284,0.339,0.759,0.453,0.801c0.012,0.004,0.345,0.112,1.482-0.473c0.634-0.323,1.711-2.219,2.689-5.724
		c1.565-5.604,1.845-9.774,0.768-11.445c-0.275-0.423-0.634-0.655-1.124-0.73l-1.02-0.156l0.145-1.02
		c0.221-1.594,0.115-2.767,0.014-3.899c-0.048-0.472-0.087-0.938-0.104-1.419c-0.09-0.026-0.171-0.048-0.259-0.076
		c-3.103-6.236-5.912-6.359-12.569-5.022c-5.677,1.141-10.315,0.955-15.731-1.052c-0.992-0.367-1.987-0.713-2.981-1.057
		c-0.399,0.112-0.789,0.173-1.122,0.226c-0.476,0.068-0.971,0.143-1.11,0.318c-0.559,0.689-0.555,1.117-0.545,1.969
		c0.004,0.557,0.012,1.251-0.162,2.113c-0.103,0.506-0.186,0.97-0.265,1.397c-0.62,3.444-1.084,5.024-5.578,6.339
		c-1.414,0.416-6.313,1.669-9.864,0.448c-1.488-0.516-2.554-1.343-3.586-2.118c-1.422-1.072-2.654-2.039-4.867-2.039
		c-0.014,0-0.027,0-0.039,0c-1.759,0-3.037,0.861-4.518,1.83c-1.077,0.705-2.188,1.444-3.561,1.872
		c-1.659,0.516-3.06,0.501-4.074,0.484c-1.79-0.026-2.016-0.028-2.158,2.759c-0.044,0.895,0.174,1.681,0.382,2.443
		c0.485,1.765,1.034,3.77-2.043,6.171c-1.563,1.22-3.208,1.537-4.861,1.537c-0.928,0-1.86-0.099-2.781-0.198
		c-0.721-0.081-1.458-0.158-2.191-0.186c2.824,5.279,2.978,9.571,3.156,14.881c0.035,1.089,0.073,2.232,0.136,3.45
		c0.176,3.371,0.266,7.191-0.896,9.829c-0.537,1.217-1.326,2.187-2.025,3.038c-1.168,1.429-2.095,2.559-1.796,4.531l0.179,1.176
		l-1.187,0.022c-0.18,0.004-0.373,0.04-0.579,0.096c0.356,0.118,0.695,0.255,0.988,0.447c4.615,3.022,5.488,7.643,0.947,10.875
		c-1.467,1.042-5.406,1.425-5.029,3.826c0.387,2.478,4.887,2.388,6.508,1.949c2.994-0.806,4.399-3.76,7.866-3.813
		c3.178-0.049,5.455,2.532,8.26,3.309c1.542,5.535-6.851,4.643-5.853,9.195c1.116,5.079,8.17,1.014,9.759,3.117
		c2.007,2.652-3.626,6.115,0.79,9.259c2.562,1.825,8.609,0.353,10.768-1.618c5.788-5.284,3.175-13.271,10.848-16.407
		c0.023-1.616,0.22-4.444,0.983-5.667C300.824,269.885,302.225,269.397,303.46,268.965z"/>
	<path fill="#E6E6E6" d="M249.21,255.278l0.986,0.178c0.508,0.092,1.017-0.072,1.604-0.264c0.202-0.063,0.416-0.134,0.643-0.194
		c-0.005-2.29,1.222-3.793,2.323-5.138c0.671-0.82,1.308-1.6,1.729-2.555c1.058-2.409,0.841-6.623,0.726-8.888
		c-0.064-1.228-0.104-2.386-0.141-3.486c-0.192-5.737-0.331-9.883-3.755-15.45c-0.471-0.763-2.338-2.469-3.702-3.717
		c-2.173-1.985-2.74-2.55-2.907-3.102c-0.66-2.169,0.371-3.156,1.056-3.807c0.364-0.349,0.556-0.543,0.599-0.828
		c0.093-0.595-0.032-1.182-0.168-1.806c-0.17-0.802-0.366-1.71-0.099-2.72c0.274-1.028,0.911-1.935,1.527-2.81
		c1.347-1.904,1.717-2.674,0.604-3.82c-0.914-0.94-2.178-0.747-2.847-0.548c-1.473,0.434-2.758,1.652-2.995,2.833l-0.198,1.015
		l-1.016-0.193c-1.657-0.318-3.41-0.75-5.266-1.207c-4.06-1.003-8.252-2.028-11.96-2l-1.576,0.018l0.604-1.457
		c0.478-1.151,0.472-1.787,0.324-1.979c-0.426-0.556-2.757-0.246-4.153-0.061c-0.839,0.112-1.634,0.217-2.354,0.25
		c-0.588,1.671-1.391,3.311-1.74,5.031c-0.175,0.868,1.027,1.412,0.982,2.327c-0.034,0.634-1.596,1.383-1.559,1.712
		c0.199,1.773,0.571,2.981,1.467,4.651c-7.68,1.72-0.087,8.469,0.624,12.491c0.245,1.392,0.757,6.356-1.929,6.626
		c-3.107,0.307-2.418-5.218-3.163-6.626c-2.548-4.797-9.285-1.23-13.055,1.505c-5.729,4.157-0.271,9.167-4.167,14.329l-0.462-0.462
		c-1.335,0.208-2.591,0.573-4.093,0.531c0.426,2.95,2.473,6.145,0.762,9.16c-1.976,3.475-4.739,2.985-7.309,0.902
		c-2.538,1.589,2.336,5.692,0.588,9.302c-1.122,2.313-5.756,6.801-7.83,7.38c0.931,0.553,3.658,2.794,3.119,4.185
		c-0.854,2.21-4.452-0.135-5.603,2.301c-1.438,3.049,4.71,7.275,0.633,10.68c4.175-0.812,4.118,2.942,7.127,3.792
		c3.608,1.021,3.388-2.14,5.769-4.64c2.793-2.931,15.49-5.655,10.03-11.203c3.515-3.534,8.662,1.878,11.749-4.527
		c0.99-2.059,0.076-4.883,2.18-6.253c2.993-1.951,3.814,0.695,5.099,1.976c2.015,2.012,0.006,3.837,4.616,3.144
		c3.496-0.527,3.485-2.867,5.088-4.521c3.894-4.019,5.36-1.518,10.109,1.042c0.077,0.377-0.371,0.351-0.371,0.74
		c2.85-0.381,7.528-1.937,11.409-2.344c0.04-0.173,0.088-0.336,0.126-0.517L249.21,255.278z"/>
	<path fill="#E6E6E6" d="M226.958,192.083c0.511,0.663,0.646,1.534,0.404,2.636c3.563,0.181,7.362,1.119,11.05,2.03
		c1.495,0.369,2.921,0.722,4.268,1.006c0.707-1.545,2.274-2.882,4.118-3.429c1.904-0.565,3.705-0.164,4.93,1.096
		c2.418,2.489,0.792,4.789-0.396,6.473c-0.534,0.758-1.04,1.473-1.217,2.142c-0.138,0.526-0.019,1.092,0.125,1.748
		c0.158,0.743,0.339,1.589,0.189,2.563c-0.157,0.996-0.771,1.584-1.22,2.013c-0.556,0.528-0.773,0.741-0.529,1.606
		c0.276,0.366,1.466,1.454,2.348,2.261c1.62,1.479,3.281,3.001,3.968,4.017l-0.012-0.352c1.188-0.04,2.333,0.084,3.438,0.205
		c2.342,0.257,4.357,0.476,6.137-0.91c1.983-1.548,1.76-2.358,1.313-3.977c-0.239-0.876-0.51-1.873-0.45-3.099
		c0.228-4.467,1.842-4.782,4.27-4.733c0.976,0.014,2.082,0.032,3.423-0.383c1.094-0.341,2.038-0.444,3.041-1.101
		c1.613-1.055,3.276-1.627,5.654-1.627c0.019,0,0.037,0,0.056,0c2.9,0,4.604,0.785,6.105,1.914c0.945,0.711,1.836,1.126,3.013,1.53
		c2.356,0.814,5.989,0.156,8.601-0.605c3.446-1.007,3.575-1.784,4.117-4.774c0.077-0.439,0.163-0.949,0.268-1.471
		c0.13-0.65,0.128-1.191,0.121-1.699c-0.009-0.994-0.017-2.03,1.006-3.301c0.125-0.157,0.262-0.287,0.406-0.396
		c-2.335-0.763-4.67-1.504-6.989-2.291c-3.489-1.184-3.698-1.056-4.166-5.094c-0.338-2.949,0.882-6.194-3.627-5.156
		c-0.028-2.966,9.02-2.466,11.608-3.519c2.874-1.17,7.181-3.143,8.144-6.499c-2.271-4.407-4.393-1.69-3.053-7.509
		c0.842-3.666,1.641-6.511-1.158-10.142c-2.34-3.039-7.146-4.646-10.884-2.448c-4.79,2.812-5.172,10.048-10.282,12.949
		c-7.039,3.992-18.52,4.848-26.372,5.69c-7.571,0.816-15.405-2.633-22.672-0.843c-10.786,2.656-7.192,16.889-16.575,21.259
		c0.02,0.524-0.023,1.039-0.106,1.545c0.529-0.051,1.074-0.121,1.51-0.179C223.297,190.908,225.798,190.573,226.958,192.083z"/>
	<path fill="#E6E6E6" d="M400.777,219.849c-0.577-2.903-5.67-5.031-7.533-7.371c-2.722-3.42-4.629-6.635-8.57-8.952
		c-4.653-2.736-14.079-8.92-19.511-8.685c-4.116,0.175-8.143,4.285-12.157,5.688c-4.17,1.455-6.807,2.435-10.398,1.815
		c0.018,0.232,0.037,0.466,0.063,0.708c0.091,0.99,0.188,2.092,0.074,3.485c0.641,0.285,1.18,0.752,1.584,1.381
		c1.825,2.819,0.73,8.698-0.509,13.133c-1.104,3.952-2.364,6.312-3.747,7.019c-1.348,0.688-2.311,0.869-3.127,0.58
		c-0.959-0.34-1.347-1.217-1.657-1.921c-0.277-0.626-0.516-1.163-1.054-1.453c-2.338-1.255-12.008-2.178-13.527-0.085
		c-0.382,0.527-0.189,1.783-0.022,2.893c0.245,1.586,0.492,3.228-0.359,4.507c-0.728,1.092-2.312,1.646-3.845,2.18
		c-0.412,0.147-0.832,0.292-1.202,0.439c0.444,0.634,1.052,1.23,1.645,1.81c0.377,0.366,0.763,0.745,1.112,1.137
		c1.521,0,2.658,0.393,3.467,1.191c1.481,1.46,1.379,3.849,1.284,6.154c-0.02,0.5-0.04,1.012-0.046,1.512
		c3.035,0.176,4.014,0.776,5.318,3.907c0.704,1.686,1.027,4.368,0.08,6.287c-0.532,1.069-1.401,1.788-2.517,2.08
		c-1.444,0.381-2.854-0.351-4.219-1.055c-0.717-0.373-1.452-0.755-2.063-0.884c-0.66,0.947-1.813,1.837-1.831,1.846
		c-0.57,0.295-1.329,0.364-2.132,0.438c-0.467,0.041-0.993,0.091-1.259,0.181c-1.394,0.473-4.619,2.105-5.048,2.712
		c-0.42,0.618-0.4,1.302-0.373,2.168c0.04,1.323,0.092,2.969-1.564,4.599c-0.938,0.924-2.024,1.304-2.984,1.638
		c-1.088,0.381-1.947,0.68-2.552,1.651c-0.379,0.597-0.577,2.487-0.648,3.898c7.808-1.707,9.812,7.307,15.056,11.506
		c3.731,2.99,6.562,2.333,10.619-0.229c3.62-2.285,3.797-5.566,6.94-8.214c2.75-2.317,6.79-3.216,9.956-4.963
		c0.647-0.355,3.088-1.887,3.552-2.431c1.437-1.683,0.924-3.039,1.979-4.994c1.733-3.213,5.276-3.857,8.211-5.771
		c3.091-2.018,4.972-4.206,6.85-7.289c2.59-4.257,11.642-16.927,14.063-5.17c9.657,3.696,10.771-3.992,14.148-10.679
		C394.762,233.421,401.849,225.265,400.777,219.849z"/>
	<path fill="#E6E6E6" d="M107.496,270.667c-2.418,0-5.35-1.536-8.184-3.021c-2.063-1.084-4.199-2.201-6.41-2.911
		c-1.902-0.609-4.173-0.816-6.575-1.036c-4.333-0.395-8.24-0.888-8.444-2.581c-0.189-1.575-1.316-2.874-2.847-3.284
		c-0.862-0.228-1.698-0.322-2.439-0.4c-0.11-0.015-0.237-0.027-0.368-0.044c-0.274-1.049-0.971-1.974-1.953-2.484
		c-2.551-1.33-2.517-1.694-2.244-4.525c0.219-2.287,0.517-5.418-1.126-9.011c-1.226-2.685-3.39-4.126-4.968-5.181
		c-0.851-0.565-1.583-1.057-1.983-1.569c-0.585-0.755-0.78-1.784-1.047-3.405c-0.196-1.179-0.417-2.516-0.924-3.894
		c-0.614-1.686-1.558-3.074-2.389-4.299c-0.875-1.285-1.63-2.396-1.676-3.351c-0.045-0.923,1.221-2.844,2.058-4.116
		c0.427-0.647,0.866-1.315,1.252-1.981c1.106-1.916,1.567-3.97,2.056-6.571c0.335-1.787,1.03-4.732,1.856-5.732c0,0,0.043,0,0.066,0
		c0.079,0,0.158-0.393,0.245-0.383c0.188,0.031,0.374-0.155,0.563-0.155c0.839,0,1.658-0.371,2.336-0.883
		c0.829-0.625,1.373-1.608,1.509-2.638c0.036-0.283,0.081-0.707,0.135-1.189c0.272-2.406,0.548-4.297,0.815-5.768
		c0.747,0.705,2.03,1.474,4.064,1.474c0.194,0,0.403-0.011,0.62-0.028c4.821-0.328,6.041-4.559,6.561-6.363
		c0.807,0.502,1.797,1.273,2.372,1.724c0.88,0.686,1.711,1.336,2.534,1.804l0.182,0.103c2.553,1.459,3.076,1.626,6.226,1.993
		c0.411,0.049,0.794,0.071,1.203,0.071c0.446,0,0.871-0.028,1.282-0.059c0.142-0.01,0.281-0.023,0.42-0.028
		c0.305,0.367,0.565,1.06,0.865,1.846c0.771,2.034,1.934,5.108,5.703,6.88c2.521,1.183,5.975,2.364,8.748,3.311l0.88,0.303
		c1.997,0.685,3.967,0.911,5.705,1.109c1.675,0.19,3.127,0.356,4.287,0.862c0.833,0.366,1.529,0.706,2.155,1.013
		c2.413,1.179,4.497,2.197,9.014,2.201c2.482,0,4.652-0.412,6.569-0.774c1.43-0.272,2.667-0.506,3.681-0.506
		c1.004,0,2.252,0,3.983,3.292c0.659,1.252,1.944,2.045,3.357,2.071c1.623,0.032,2.164,0.499,2.203,0.591
		c0.079,0.182-0.021,1.035-1.039,2.166c-0.476,0.529-0.982,0.971-1.518,1.44c-1.608,1.401-3.61,3.149-4.387,6.963
		c-0.324,1.593-0.457,3.257-0.584,4.872c-0.08,1.002-0.154,1.95-0.27,2.768c-0.148,1.081-0.178,2.123-0.202,3.134
		c-0.038,1.432-0.074,2.785-0.466,3.581c-0.212,0.431-0.661,0.805-1.438,1.424c-0.84,0.674-1.885,1.509-2.767,2.751
		c-0.89,1.255-1.492,2.654-2.021,3.887c-0.085,0.199-0.186,0.433-0.293,0.68c-0.163-0.259-0.343-0.497-0.542-0.723
		c-0.983-1.112-2.332-1.723-3.792-1.723c-2.821,0-5.383,2.248-6.849,6.015c-0.396,1.016-0.719,1.967-1.029,2.888
		c-0.78,2.287-1.395,4.096-2.74,5.883c-0.822,1.1-1.916,2.033-3.074,3.021c-1.285,1.101-2.616,2.236-3.816,3.755
		c-0.84,1.063-1.391,2.051-1.832,2.841c-0.869,1.56-0.903,1.62-2.506,1.853C108.013,270.65,107.753,270.667,107.496,270.667z"/>
</g>
<g>
	<path fill="#B3B3B3" d="M98.577,196.515c-1.555-1.953-2.932-4.148-5.09-5.275c-2.049-1.072-4.633-1.359-6.843-2.527
		c-4.401-2.325-6.173-6.065-10.569-1.469c-9.011,9.414-12.235-14.894-13.782-20.315c-0.706-2.467-0.222-10.083-2.274-11.604
		c-3.003-2.225-8.812,1.686-12.3,1.922c-8.406,0.565-19.029-3.968-20.875-12.509c-0.956-4.433,0.884-8.498-2.22-12.317
		c-2.581-3.18-6.563-3.44-9.507-5.81c-3.772,2.915-8.921,7.747-10.461,12.575c-2.085,6.539,2.674,9.899,2.787,15.963
		c0.099,5.309-3.11,9.825-2.771,15.962c0.389,7.051-1.105,7.836-2.963,13.728c-2.75,8.708-1.886,25.773,10.599,24.441
		c4.948-0.527,9.354-4.654,13.862-6.262c4.985-1.779,9.351-4.721,14.591-6.246c3.949-1.15,12.211-1.727,16.048,0.043
		c2.585,1.193,1.205,0.531,1.104,2.908c-0.072,1.691,0.164,3.338,0.148,5.041c-0.021,2.248-0.515,3.912-1.529,5.887
		c-1.861,3.631-4.57,7.482-3.294,11.779c1.182,3.979,4.141,7.176,5.164,11.4c0.854,3.525,3.413,4.072,5.563,6.723
		c4.394,5.416-1.361,16.355,6.425,19.301c0.946,0.361,2.101,0.037,3.041,0.369c2.329,0.814,1.348,0.275,2.493,1.895
		c3.035,4.291,4.359,4.365,10.247,4.365c3.605,0,6.276,0.82,9.449,2.398c3.141,1.557,6.476,4.779,10.021,5.221
		c4.874,0.602,6.284-4.084,9.532-6.367c4.829-3.387,6.952-7.189,9.858-12.229c1.115-1.93,1.248-4.678,2.885-6.295
		c2.411-2.379,3.403-0.893,5.672,0.219c2.536,1.236,1.615,1.35,3.319-1.059c2.23-3.152,6.042-6.334,10.069-5.035
		c4.609,1.492,5.359,7.047,8.803,9.842c9.642,7.822,25.951,5.578,24.498,21.342c-0.818,8.891,0.443,7.189,6.242,13.359
		c4.278,4.549,3.607,8.418,4.999,14.4c2.625,11.287,7.2,21.184,0.708,32.098c-2.801,4.705-10.521,9.248-5.062,14.594
		c4.943,4.84,16.429,0.803,22.239,5.17c3.825,2.875,3.307,4.5,3.473,9.215c0.038,1.104-1.032,4.191-0.725,4.838
		c1.297,2.744,2.67,1.186,4.195,2.779c3.81,3.984,9.623,10.096,16.515,7.74c4.926,11.775,19.355,17.869,26.355,4.77
		c5.797-10.854,2.479-23.969,5.729-35.363c1.836-6.426,3.463-9.645,8.83-13.395c3.559-2.484,9.219-4.258,11.432-7.982
		c5.084-8.557-3.582-5.139-5.566-10.029c-0.66-1.633,3.205-14.541,4.023-16.516c1.408-3.393,3.9-4.381,6.074-7.652
		c1.984-2.982,1.896-7.332,3.801-10.221c3.01-4.578,18.666-10.664,17.314-0.986c2.021,0.402,5.006,0.516,6.66,1.652
		c3.025,2.074-0.148,5.531,5.709,5.441c6.061-0.09,8.148-7.436,11.938-10.268c4.967-3.715,10.299-2.049,14.629-6.922
		c3.084-3.475,6.73-8.719,9.543-12.668c2.986-4.193,5.207-9.959,11.084-12.006c8.09-2.816,6.395,4.164,13.17,4.369
		c7.072,0.221,7.674-7.785,9.545-12.506c1.443-3.639,6.98-10.336,6.445-13.9c-0.352-2.354-3.16-2.193-4.188-4.113
		c-1.166-2.174-1.029-4.82-2.088-6.986c-1.926-3.949-3.908-5.711-8.139-7.773c-8.906-4.346-18.393-8.559-16.131-20.667
		c1.609-8.614,9.498-15.262,12.492-22.902c3.678-9.386,3.49-14.44-2.848-22.206c3.055-3.288-5.014-8.191-5.482-13.035
		c-0.676-6.992,3.285-11.192,8.311-15.249c5.26-4.247,11.395-6.923,16.676-11.086c5.328-4.201,9.641-9.267,14.436-14.068
		c9.523-9.544,14.867-17.975,18.336-31.219c1.51-5.767,2.643-11.599,4.166-17.366c1.193-4.521,1.564-12.617,4.127-16.519
		c3.77-5.732,8.883-4.951,3.217-13.325c-4.398-6.493-8.494-7.203-15.813-7.636c-8.307-0.491-11.32-1.234-17.871,3.644
		c-5.387,4.013-10.205,5.259-16.154,8.311c-6.23,3.198-9.396,8.468-16.656,8.868c-4.822,0.266-11.207-2.683-15.092,0.868
		c-4.178,3.819-2.178,11.2-1.527,15.789c0.865,6.078,0.031,8.862-1.945,14.035c-2.301,6.042-4.623,12.058-4.336,18.583
		c0.307,6.945,3.566,8.984-1.926,14.071c-3.775,3.493-9.936,5.956-14.227,8.678c-7.262,4.604-6.641,3.76-10.223-3.315
		c-2.342-4.627-17.832-24.944-18.037-9.718c-0.08,5.973,7.021,8.889,6.936,15.963c-0.08,6.476-2.926,13.31-3.469,19.974
		c-1.088,13.401-1.283,22.1-7.791,34.162c-5.918,10.963-17.51,19.553-29.684,20.835c-6.783,0.714-14.145,0.346-20.824,0.681
		c-5.752,0.288-10.846-1.847-16.656-1.391c-7.396,0.58-8.371,3.331-9.717,9.716c-1.477,7.01-1.629,9.015-8.483,13.049
		c-2.357,1.389-12.731,7.652-14.608,6.584c-4.297-2.439,0.594-13.1,1.581-16.164c3.57-11.099,2.966-21.864-9.027-27.931
		c-9.765-4.94-15.983,10.749-22.38,17.347c-4.591,4.733-8.836,7.375-6.975,14.209c1.239,4.546,7.142,11.753,5.099,17.23
		c-1.982,5.314-6.905,4.289-11.356,3.48c-4.588-0.836-7.775,4.271-12.454,2.326c-1.24-0.514-1.686-1.719-2.876-2.35
		c-4.988-2.648-8.692-0.809-13.91-0.568c-5.427,0.252-10.022-1.893-15.186-2.834c-4.872-0.889-9.603-2.836-14.204-4.598
		C100.956,199.257,99.718,197.953,98.577,196.515z"/>
	<path fill="#E6E6E6" d="M303.884,268.986c0.863-0.301,1.607-0.561,2.213-1.154c1.006-0.992,0.979-1.902,0.941-3.053
		c-0.031-1.039-0.068-2.223,0.73-3.402c0.92-1.357,5.283-3.232,6.102-3.512c0.498-0.17,1.131-0.229,1.74-0.283
		c0.436-0.039,1.082-0.1,1.328-0.197c0.293-0.24,1.145-1.193,1.299-1.467c-0.1,0.174-0.166,0.582,0.07,0.949l0.852-0.541
		l-0.096-1.057h0.002l0.854-0.086l0.035,0.112c0.967,0.148,1.91,0.634,2.832,1.11c1.012,0.523,2.057,1.067,2.732,0.888
		c0.529-0.139,0.914-0.46,1.176-0.991c0.627-1.256,0.396-3.287-0.133-4.561c-1.027-2.463-1.197-2.564-4.455-2.668l-0.959-0.029
		l-0.047-0.955c-0.045-0.879-0.006-1.781,0.027-2.652c0.078-1.855,0.16-3.773-0.664-4.588c-0.453-0.443-1.271-0.639-2.422-0.576
		l-0.535,0.027l-0.334-0.42c-0.35-0.439-0.803-0.883-1.283-1.352c-0.953-0.936-2.033-1.992-2.592-3.355l-0.322-0.801l0.725-0.467
		c0.668-0.432,1.564-0.746,2.518-1.076c1.037-0.367,2.459-0.861,2.797-1.371c0.406-0.609,0.217-1.846,0.035-3.039
		c-0.24-1.578-0.488-3.211,0.396-4.43c2.482-3.426,13.648-1.895,16.199-0.525c1.168,0.627,1.633,1.678,1.967,2.445
		c0.129,0.283,0.34,0.758,0.453,0.801c0.012,0.004,0.346,0.111,1.482-0.473c0.635-0.324,1.711-2.219,2.689-5.725
		c1.566-5.604,1.846-9.773,0.768-11.445c-0.275-0.422-0.633-0.654-1.123-0.73l-1.02-0.156l0.145-1.02
		c0.221-1.594,0.115-2.766,0.014-3.898c-0.049-0.473-0.088-0.939-0.105-1.42c-0.09-0.025-0.17-0.047-0.258-0.076
		c-3.104-6.236-5.912-6.359-12.57-5.021c-5.676,1.141-10.314,0.955-15.73-1.053c-0.992-0.367-1.988-0.713-2.982-1.057
		c-0.398,0.113-0.789,0.174-1.121,0.227c-0.477,0.068-0.971,0.143-1.111,0.318c-0.559,0.689-0.555,1.117-0.545,1.969
		c0.004,0.557,0.012,1.25-0.162,2.113c-0.102,0.506-0.186,0.969-0.264,1.396c-0.621,3.445-1.084,5.025-5.578,6.34
		c-1.414,0.416-6.314,1.668-9.865,0.447c-1.488-0.516-2.553-1.354-3.586-2.129c-1.422-1.072-2.654-2.049-4.867-2.049
		c-0.014,0-0.027,0-0.039,0c-1.758,0-3.037,0.871-4.518,1.84c-1.076,0.705-2.188,1.45-3.561,1.878
		c-1.658,0.516-3.059,0.503-4.074,0.487c-1.789-0.027-2.016-0.028-2.158,2.759c-0.043,0.895,0.174,1.684,0.383,2.445
		c0.484,1.766,1.033,3.769-2.043,6.171c-1.564,1.219-3.209,1.537-4.861,1.537c-0.928,0-1.861-0.099-2.781-0.198
		c-0.721-0.08-1.459-0.158-2.191-0.186c2.824,5.279,2.977,9.571,3.156,14.882c0.035,1.088,0.072,2.232,0.135,3.449
		c0.176,3.371,0.266,7.191-0.896,9.83c-0.537,1.217-1.326,2.186-2.025,3.037c-1.168,1.43-2.094,2.559-1.795,4.531l0.178,1.176
		l-1.186,0.023c-0.18,0.004-0.373,0.039-0.58,0.096c0.357,0.117,0.695,0.254,0.988,0.447c4.615,3.021,5.488,7.643,0.947,10.875
		c-1.467,1.041-5.406,1.424-5.029,3.826c0.387,2.477,4.887,2.387,6.508,1.949c2.994-0.807,4.4-3.76,7.867-3.814
		c3.178-0.049,5.455,2.533,8.26,3.309c1.541,5.535-6.852,4.643-5.854,9.195c1.117,5.08,8.17,1.014,9.76,3.117
		c2.006,2.652-3.627,6.115,0.789,9.26c2.563,1.824,8.609,0.352,10.768-1.619c5.789-5.283,3.176-13.271,10.848-16.406
		c0.023-1.617,0.221-4.445,0.984-5.668C301.248,269.906,302.65,269.417,303.884,268.986z"/>
	<path fill="#ED3136" d="M249.634,255.298l0.986,0.178c0.508,0.092,1.018-0.072,1.604-0.264c0.203-0.063,0.416-0.133,0.643-0.193
		c-0.004-2.291,1.223-3.793,2.324-5.139c0.67-0.82,1.307-1.6,1.729-2.555c1.059-2.408,0.842-6.623,0.727-8.887
		c-0.064-1.229-0.104-2.387-0.141-3.486c-0.193-5.738-0.332-9.883-3.756-15.451c-0.471-0.762-2.338-2.469-3.701-3.717
		c-2.174-1.984-2.74-2.549-2.908-3.102c-0.66-2.168,0.371-3.156,1.057-3.807c0.363-0.348,0.555-0.543,0.598-0.828
		c0.094-0.594-0.031-1.182-0.168-1.805c-0.17-0.803-0.365-1.711-0.098-2.721c0.273-1.027,0.91-1.934,1.527-2.809
		c1.346-1.904,1.717-2.674,0.604-3.82c-0.914-0.941-2.178-0.748-2.848-0.549c-1.473,0.434-2.758,1.652-2.994,2.834l-0.199,1.014
		L243.603,200c-1.656-0.318-3.41-0.75-5.266-1.207c-4.059-1.002-8.252-2.027-11.959-2l-1.576,0.018l0.604-1.457
		c0.479-1.15,0.473-1.787,0.324-1.979c-0.426-0.555-2.756-0.246-4.153-0.061c-0.839,0.113-1.634,0.217-2.354,0.25
		c-0.588,1.672-1.391,3.311-1.74,5.031c-0.175,0.869,1.027,1.412,0.982,2.328c-0.034,0.633-1.596,1.383-1.559,1.711
		c0.199,1.773,0.571,2.982,1.467,4.652c-7.68,1.719-0.087,8.469,0.624,12.49c0.245,1.393,0.757,6.357-1.929,6.627
		c-3.107,0.307-2.418-5.219-3.163-6.627c-2.548-4.797-9.285-1.23-13.055,1.506c-5.729,4.156-0.271,9.166-4.167,14.328l-0.462-0.461
		c-1.335,0.207-2.591,0.572-4.093,0.531c0.426,2.949,2.473,6.145,0.762,9.16c-1.976,3.475-4.739,2.984-7.309,0.902
		c-2.538,1.588,2.336,5.691,0.588,9.301c-1.122,2.313-5.756,6.801-7.83,7.381c0.931,0.553,3.658,2.793,3.119,4.184
		c-0.854,2.211-4.452-0.135-5.603,2.301c-1.438,3.049,4.71,7.275,0.633,10.68c4.175-0.811,4.118,2.943,7.127,3.793
		c3.608,1.021,3.388-2.141,5.769-4.641c2.793-2.93,15.49-5.654,10.03-11.203c3.515-3.533,8.662,1.879,11.749-4.527
		c0.99-2.059,0.076-4.883,2.18-6.252c2.993-1.951,3.814,0.695,5.099,1.975c2.015,2.012,0.006,3.838,4.616,3.145
		c3.496-0.527,3.486-2.867,5.087-4.521c3.895-4.018,5.361-1.518,10.109,1.043c0.078,0.377-0.371,0.35-0.371,0.74
		c2.85-0.381,7.529-1.938,11.41-2.344c0.039-0.174,0.088-0.336,0.125-0.518L249.634,255.298z"/>
	<path fill="#E6E6E6" d="M227.382,192.105c0.512,0.662,0.646,1.533,0.404,2.635c3.564,0.182,7.363,1.119,11.051,2.031
		c1.494,0.369,2.92,0.721,4.268,1.006c0.707-1.545,2.273-2.883,4.117-3.43c1.904-0.564,3.705-0.164,4.93,1.096
		c2.418,2.49,0.793,4.789-0.395,6.473c-0.535,0.758-1.041,1.473-1.217,2.143c-0.139,0.525-0.02,1.092,0.125,1.748
		c0.158,0.742,0.338,1.588,0.189,2.563c-0.158,0.996-0.771,1.584-1.221,2.014c-0.555,0.527-0.773,0.74-0.529,1.605
		c0.277,0.367,1.467,1.455,2.348,2.262c1.621,1.479,3.281,3,3.969,4.016l-0.012-0.352c1.188-0.039,2.332,0.084,3.438,0.205
		c2.342,0.258,4.357,0.477,6.137-0.91c1.984-1.547,1.76-2.357,1.313-3.977c-0.238-0.875-0.51-1.873-0.449-3.098
		c0.227-4.467,1.842-4.783,4.27-4.734c0.975,0.014,2.082,0.033,3.422-0.383c1.094-0.34,2.039-0.455,3.041-1.109
		c1.613-1.057,3.277-1.639,5.654-1.639c0.02,0,0.037,0,0.057,0c2.9,0,4.604,0.795,6.105,1.926c0.945,0.711,1.836,1.13,3.012,1.534
		c2.357,0.814,5.99,0.159,8.602-0.603c3.445-1.008,3.574-1.782,4.117-4.772c0.076-0.441,0.162-0.949,0.268-1.471
		c0.129-0.65,0.127-1.192,0.121-1.7c-0.01-0.994-0.018-2.029,1.006-3.299c0.125-0.158,0.262-0.288,0.406-0.397
		c-2.336-0.762-4.67-1.504-6.99-2.291c-3.488-1.184-3.697-1.055-4.166-5.093c-0.338-2.949,0.883-6.195-3.627-5.157
		c-0.027-2.966,9.02-2.466,11.609-3.519c2.873-1.17,7.18-3.143,8.143-6.499c-2.27-4.407-4.393-1.69-3.053-7.509
		c0.842-3.666,1.641-6.511-1.158-10.142c-2.34-3.039-7.146-4.646-10.883-2.448c-4.791,2.812-5.172,10.048-10.283,12.949
		c-7.039,3.992-18.52,4.848-26.371,5.69c-7.572,0.816-15.406-2.633-22.672-0.843c-10.787,2.656-7.193,16.889-16.576,21.259
		c0.02,0.524-0.023,1.04-0.106,1.545c0.529-0.051,1.074-0.121,1.51-0.18C223.722,190.929,226.222,190.593,227.382,192.105z"/>
	<path fill="#E6E6E6" d="M401.201,219.871c-0.576-2.904-5.67-5.031-7.533-7.371c-2.721-3.42-4.629-6.635-8.57-8.953
		c-4.652-2.736-14.078-8.92-19.51-8.684c-4.117,0.174-8.143,4.285-12.158,5.688c-4.17,1.455-6.807,2.436-10.398,1.816
		c0.018,0.232,0.037,0.465,0.063,0.707c0.092,0.99,0.189,2.092,0.074,3.486c0.641,0.285,1.18,0.752,1.584,1.381
		c1.826,2.818,0.73,8.697-0.508,13.133c-1.104,3.951-2.365,6.311-3.748,7.018c-1.348,0.688-2.311,0.869-3.127,0.58
		c-0.959-0.34-1.346-1.217-1.656-1.92c-0.277-0.627-0.516-1.164-1.055-1.453c-2.338-1.256-12.008-2.178-13.527-0.086
		c-0.381,0.527-0.189,1.783-0.021,2.893c0.244,1.586,0.492,3.229-0.359,4.508c-0.729,1.092-2.313,1.645-3.846,2.18
		c-0.412,0.146-0.832,0.291-1.201,0.439c0.443,0.633,1.051,1.23,1.645,1.809c0.377,0.367,0.762,0.746,1.111,1.137
		c1.521,0,2.658,0.393,3.467,1.191c1.482,1.461,1.379,3.85,1.285,6.154c-0.02,0.5-0.041,1.012-0.047,1.512
		c3.035,0.176,4.014,0.777,5.318,3.908c0.705,1.686,1.027,4.367,0.08,6.287c-0.531,1.068-1.4,1.787-2.516,2.08
		c-1.445,0.381-2.854-0.352-4.219-1.055c-0.717-0.373-1.453-0.756-2.064-0.885c-0.66,0.947-1.813,1.838-1.83,1.846
		c-0.57,0.295-1.33,0.365-2.133,0.439c-0.467,0.041-0.992,0.09-1.258,0.18c-1.395,0.473-4.619,2.105-5.049,2.713
		c-0.42,0.617-0.4,1.301-0.373,2.168c0.041,1.322,0.092,2.969-1.564,4.598c-0.938,0.924-2.023,1.305-2.984,1.639
		c-1.088,0.381-1.947,0.68-2.551,1.65c-0.379,0.598-0.578,2.488-0.648,3.898c7.807-1.707,9.811,7.307,15.055,11.506
		c3.732,2.99,6.563,2.334,10.619-0.229c3.621-2.285,3.797-5.566,6.941-8.213c2.75-2.318,6.789-3.217,9.955-4.963
		c0.648-0.355,3.088-1.887,3.553-2.432c1.436-1.682,0.924-3.039,1.979-4.994c1.732-3.213,5.275-3.857,8.211-5.77
		c3.09-2.018,4.971-4.207,6.85-7.289c2.59-4.258,11.641-16.928,14.063-5.17c9.656,3.695,10.771-3.992,14.148-10.68
		C395.187,233.443,402.273,225.287,401.201,219.871z"/>
	<path fill="#E6E6E6" d="M107.92,270.689c-2.418,0-5.35-1.537-8.184-3.021c-2.063-1.084-4.199-2.201-6.41-2.912
		c-1.902-0.609-4.173-0.816-6.575-1.035c-4.333-0.395-8.24-0.889-8.444-2.582c-0.189-1.574-1.316-2.873-2.847-3.283
		c-0.862-0.229-1.698-0.322-2.439-0.4c-0.11-0.016-0.237-0.027-0.368-0.045c-0.274-1.049-0.971-1.973-1.953-2.484
		c-2.551-1.33-2.517-1.693-2.244-4.525c0.219-2.287,0.517-5.418-1.126-9.01c-1.226-2.686-3.39-4.127-4.968-5.182
		c-0.851-0.564-1.583-1.057-1.983-1.568c-0.585-0.756-0.78-1.785-1.047-3.406c-0.196-1.178-0.417-2.516-0.924-3.893
		c-0.614-1.686-1.558-3.074-2.389-4.299c-0.875-1.285-1.63-2.396-1.676-3.352c-0.045-0.922,1.221-2.844,2.058-4.115
		c0.427-0.648,0.866-1.316,1.252-1.982c1.106-1.916,1.567-3.979,2.056-6.58c0.335-1.787,1.03-4.744,1.856-5.744c0,0,0.043,0,0.066,0
		c0.079,0,0.158-0.381,0.245-0.371c0.188,0.031,0.374-0.151,0.563-0.151c0.839,0,1.658-0.368,2.336-0.88
		c0.829-0.625,1.373-1.606,1.509-2.636c0.036-0.285,0.081-0.707,0.135-1.189c0.272-2.406,0.548-4.298,0.815-5.769
		c0.747,0.705,2.03,1.475,4.064,1.475c0.194,0,0.403-0.011,0.62-0.028c4.821-0.328,6.041-4.558,6.561-6.362
		c0.807,0.502,1.797,1.273,2.372,1.724c0.88,0.686,1.711,1.335,2.534,1.803l0.182,0.103c2.553,1.458,3.076,1.626,6.226,1.994
		c0.411,0.049,0.794,0.07,1.203,0.07c0.446,0,0.871-0.027,1.282-0.059c0.142-0.01,0.281-0.023,0.42-0.027
		c0.305,0.367,0.565,1.059,0.865,1.846c0.771,2.033,1.934,5.107,5.703,6.879c2.521,1.184,5.975,2.365,8.748,3.311l0.88,0.303
		c1.997,0.686,3.967,0.912,5.705,1.109c1.675,0.191,3.127,0.357,4.287,0.863c0.833,0.365,1.529,0.705,2.155,1.012
		c2.413,1.18,4.497,2.197,9.014,2.201c2.482,0,4.652-0.412,6.569-0.773c1.43-0.273,2.667-0.506,3.681-0.506
		c1.004,0,2.252,0,3.983,3.291c0.659,1.252,1.944,2.045,3.357,2.072c1.623,0.031,2.164,0.498,2.203,0.59
		c0.079,0.182-0.021,1.035-1.039,2.166c-0.476,0.529-0.982,0.971-1.518,1.441c-1.608,1.4-3.61,3.148-4.387,6.963
		c-0.324,1.592-0.457,3.256-0.584,4.871c-0.08,1.002-0.154,1.951-0.27,2.768c-0.148,1.082-0.178,2.123-0.202,3.135
		c-0.038,1.432-0.074,2.785-0.466,3.58c-0.212,0.432-0.661,0.805-1.438,1.424c-0.84,0.674-1.885,1.51-2.767,2.752
		c-0.89,1.254-1.492,2.654-2.021,3.887c-0.085,0.199-0.186,0.432-0.293,0.68c-0.163-0.26-0.343-0.498-0.542-0.723
		c-0.983-1.113-2.332-1.723-3.792-1.723c-2.821,0-5.383,2.248-6.849,6.014c-0.396,1.016-0.719,1.967-1.029,2.889
		c-0.78,2.287-1.395,4.096-2.74,5.883c-0.822,1.1-1.916,2.033-3.074,3.021c-1.285,1.1-2.616,2.236-3.816,3.754
		c-0.84,1.064-1.391,2.051-1.832,2.842c-0.869,1.559-0.903,1.619-2.506,1.852C108.438,270.671,108.178,270.689,107.92,270.689z"/>
</g>
<g>
	<path fill="#FFFFFF" d="M236.001,216.908c-3.146,0-5.705,2.559-5.705,5.701c0,3.146,2.559,5.705,5.705,5.705
		c3.143,0,5.703-2.559,5.703-5.705C241.705,219.466,239.144,216.908,236.001,216.908L236.001,216.908z M236.001,226.779
		c-2.299,0-4.17-1.867-4.17-4.17c0-2.299,1.871-4.168,4.17-4.168s4.168,1.871,4.168,4.168
		C240.169,224.912,238.3,226.779,236.001,226.779L236.001,226.779z M236.001,226.779"/>
	<path fill="#FFFFFF" d="M236.001,212.937c-5.334,0-9.674,4.34-9.674,9.672c0,3.078,2.58,7.658,4.117,10.117
		c1.01,1.617,2.1,3.156,3.061,4.334c1.545,1.887,2.096,2.047,2.496,2.047s0.922-0.16,2.463-2.049
		c0.965-1.184,2.051-2.723,3.063-4.332c1.549-2.461,4.146-7.055,4.146-10.117C245.673,217.277,241.333,212.937,236.001,212.937
		L236.001,212.937z M240.464,231.535c-1.982,3.219-3.807,5.393-4.475,5.947c-0.67-0.537-2.463-2.662-4.473-5.939
		c-2.322-3.787-3.656-7.041-3.656-8.934c0-4.486,3.652-8.137,8.141-8.137c4.486,0,8.135,3.65,8.135,8.137
		C244.136,224.492,242.798,227.742,240.464,231.535L240.464,231.535z M240.464,231.535"/>
</g>
</svg>
