<?xml version="1.0" encoding="utf-8"?>
<!-- Generator: Adobe Illustrator 16.0.0, SVG Export Plug-In . SVG Version: 6.00 Build 0)  -->
<!DOCTYPE svg PUBLIC "-//W3C//DTD SVG 1.1//EN" "http://www.w3.org/Graphics/SVG/1.1/DTD/svg11.dtd">
<svg version="1.1" id="Capa_1" xmlns="http://www.w3.org/2000/svg" xmlns:xlink="http://www.w3.org/1999/xlink" x="0px" y="0px"
	 width="458.579px" height="403.153px" viewBox="0 0 458.579 403.153" enable-background="new 0 0 458.579 403.153"
	 xml:space="preserve">
<path fill="#B3B3B3" d="M101.247,202.689c-1.604-2.016-3.023-4.28-5.25-5.443c-2.114-1.104-4.779-1.401-7.059-2.604
	c-4.541-2.398-6.367-6.258-10.902-1.518c-9.295,9.713-12.623-15.361-14.219-20.953c-0.727-2.546-0.229-10.402-2.346-11.971
	c-3.096-2.295-9.09,1.738-12.688,1.981c-8.67,0.584-19.627-4.093-21.531-12.903c-0.987-4.572,0.91-8.767-2.29-12.707
	c-2.663-3.279-6.771-3.549-9.808-5.992c-3.891,3.007-9.203,7.992-10.791,12.971c-2.15,6.746,2.758,10.214,2.875,16.465
	c0.104,5.479-3.207,10.135-2.857,16.467c0.401,7.272-1.141,8.082-3.057,14.16c-2.836,8.984-1.943,26.585,10.932,25.211
	c5.106-0.545,9.651-4.801,14.301-6.459c5.143-1.836,9.646-4.869,15.051-6.443c4.074-1.188,12.596-1.779,16.554,0.045
	c2.667,1.23,1.243,0.547,1.139,3c-0.075,1.745,0.169,3.442,0.153,5.198c-0.021,2.32-0.531,4.036-1.576,6.074
	c-1.92,3.746-4.716,7.718-3.398,12.149c1.221,4.105,4.271,7.402,5.326,11.758c0.881,3.639,3.521,4.203,5.74,6.938
	c4.53,5.586-1.404,16.871,6.627,19.91c0.977,0.371,2.166,0.037,3.137,0.379c2.402,0.842,1.389,0.285,2.57,1.955
	c3.133,4.426,4.498,4.504,10.571,4.504c3.72,0,6.474,0.846,9.747,2.471c3.24,1.607,6.68,4.934,10.336,5.387
	c5.027,0.621,6.482-4.213,9.834-6.566c4.982-3.494,7.17-7.418,10.168-12.615c1.15-1.992,1.288-4.826,2.976-6.492
	c2.486-2.455,3.511-0.92,5.851,0.225c2.616,1.277,1.668,1.391,3.424-1.092c2.302-3.252,6.232-6.533,10.387-5.191
	c4.756,1.537,5.53,7.268,9.08,10.148c9.947,8.07,26.77,5.754,25.271,22.016c-0.846,9.172,0.457,7.416,6.439,13.779
	c4.412,4.695,3.72,8.684,5.155,14.855c2.709,11.645,7.429,21.85,0.731,33.111c-2.889,4.854-10.854,9.539-5.223,15.053
	c5.101,4.992,16.947,0.828,22.943,5.332c3.943,2.965,3.408,4.643,3.579,9.506c0.04,1.139-1.063,4.322-0.745,4.99
	c1.336,2.832,2.754,1.223,4.325,2.867c3.931,4.109,9.925,10.414,17.035,7.982c5.082,12.148,19.969,18.434,27.188,4.92
	c5.979-11.195,2.555-24.725,5.909-36.477c1.892-6.629,3.571-9.947,9.108-13.816c3.67-2.563,9.51-4.393,11.791-8.234
	c5.244-8.828-3.695-5.301-5.74-10.346c-0.684-1.684,3.305-14.998,4.149-17.035c1.453-3.502,4.021-4.52,6.266-7.895
	c2.046-3.074,1.957-7.563,3.919-10.543c3.106-4.721,19.256-11,17.86-1.016c2.087,0.414,5.165,0.529,6.872,1.701
	c3.12,2.141-0.154,5.707,5.89,5.615c6.249-0.094,8.404-7.67,12.313-10.592c5.124-3.832,10.624-2.113,15.089-7.141
	c3.182-3.584,6.943-8.992,9.844-13.064c3.082-4.33,5.373-10.277,11.436-12.387c8.344-2.904,6.596,4.295,13.586,4.508
	c7.293,0.225,7.914-8.031,9.844-12.902c1.49-3.752,7.201-10.66,6.649-14.338c-0.363-2.426-3.26-2.263-4.32-4.242
	c-1.202-2.242-1.063-4.972-2.153-7.209c-1.986-4.07-4.031-5.889-8.395-8.018c-9.188-4.482-18.973-8.826-16.641-21.317
	c1.66-8.886,9.799-15.743,12.887-23.625c3.794-9.683,3.599-14.896-2.938-22.906c3.15-3.392-5.171-8.45-5.656-13.445
	c-0.697-7.213,3.389-11.544,8.574-15.732c5.424-4.379,11.754-7.141,17.199-11.433c5.499-4.335,9.946-9.559,14.893-14.514
	c9.823-9.844,15.336-18.542,18.914-32.202c1.557-5.95,2.727-11.966,4.297-17.914c1.232-4.663,1.613-13.017,4.258-17.039
	c3.889-5.913,9.162-5.108,3.316-13.745c-4.536-6.697-8.76-7.431-16.311-7.877c-8.568-0.506-11.678-1.272-18.433,3.758
	c-5.558,4.138-10.527,5.427-16.663,8.574c-6.428,3.298-9.695,8.735-17.182,9.147c-4.975,0.274-11.561-2.769-15.568,0.896
	c-4.309,3.938-2.248,11.552-1.575,16.286c0.892,6.27,0.03,9.141-2.007,14.479c-2.375,6.23-4.77,12.437-4.474,19.168
	c0.317,7.164,3.677,9.268-1.987,14.515c-3.893,3.604-10.248,6.145-14.674,8.951c-7.491,4.75-6.852,3.88-10.545-3.419
	c-2.416-4.774-18.395-25.73-18.605-10.023c-0.083,6.161,7.242,9.167,7.152,16.465c-0.08,6.679-3.018,13.728-3.576,20.602
	c-1.123,13.825-1.324,22.799-8.037,35.238c-6.104,11.31-18.063,20.17-30.621,21.493c-6.996,0.736-14.588,0.358-21.479,0.701
	c-5.933,0.297-11.188-1.904-17.181-1.434c-7.631,0.599-8.637,3.438-10.023,10.022c-1.523,7.233-1.68,9.299-8.75,13.461
	c-2.432,1.433-13.133,7.892-15.068,6.792c-4.435-2.518,0.612-13.515,1.629-16.674c3.684-11.449,3.061-22.554-9.311-28.812
	c-10.073-5.096-16.486,11.089-23.085,17.894c-4.735,4.883-9.115,7.607-7.194,14.657c1.277,4.689,7.365,12.123,5.258,17.773
	c-2.044,5.48-7.123,4.425-11.714,3.589c-4.732-0.861-8.021,4.406-12.847,2.402c-1.279-0.533-1.738-1.773-2.966-2.426
	c-5.146-2.733-8.966-0.835-14.351-0.585c-5.596,0.26-10.338-1.953-15.664-2.925c-5.025-0.916-9.904-2.924-14.65-4.741
	C103.701,205.517,102.424,204.17,101.247,202.689z"/>
<path fill="#CCCCCC" d="M313.026,277.444c0.89-0.311,1.658-0.578,2.281-1.191c1.039-1.023,1.01-1.961,0.973-3.146
	c-0.033-1.074-0.07-2.293,0.753-3.51c0.948-1.402,5.448-3.336,6.294-3.625c0.514-0.174,1.166-0.234,1.795-0.291
	c0.449-0.041,1.115-0.102,1.369-0.203c0.305-0.25,1.182-1.232,1.341-1.514c-0.103,0.178-0.173,0.6,0.071,0.979l0.88-0.552
	l-0.099-1.083h0.002l0.879-0.093l0.036,0.11c0.999,0.152,1.973,0.652,2.921,1.145c1.045,0.539,2.124,1.098,2.82,0.916
	c0.547-0.143,0.943-0.478,1.213-1.022c0.645-1.299,0.408-3.394-0.138-4.706c-1.061-2.541-1.233-2.645-4.595-2.754l-0.988-0.03
	l-0.05-0.985c-0.046-0.904-0.007-1.836,0.029-2.736c0.081-1.912,0.163-3.891-0.687-4.73c-0.467-0.459-1.311-0.66-2.497-0.596
	l-0.552,0.029l-0.346-0.434c-0.361-0.453-0.828-0.912-1.322-1.395c-0.984-0.963-2.1-2.055-2.674-3.461l-0.334-0.826l0.748-0.482
	c0.689-0.443,1.615-0.768,2.596-1.109c1.071-0.377,2.538-0.887,2.887-1.414c0.418-0.629,0.225-1.902,0.037-3.135
	c-0.248-1.628-0.504-3.313,0.408-4.568c2.561-3.533,14.079-1.957,16.709-0.543c1.205,0.646,1.684,1.73,2.031,2.521
	c0.131,0.293,0.348,0.784,0.466,0.826c0.013,0.005,0.354,0.115,1.529-0.486c0.654-0.334,1.765-2.289,2.774-5.903
	c1.615-5.783,1.902-10.086,0.791-11.807c-0.283-0.438-0.652-0.679-1.16-0.755l-1.051-0.16l0.148-1.051
	c0.229-1.645,0.12-2.854,0.014-4.023c-0.046-0.486-0.089-0.969-0.107-1.463c-0.091-0.028-0.176-0.051-0.266-0.08
	c-3.201-6.433-6.1-6.561-12.966-5.18c-5.854,1.178-10.64,0.984-16.228-1.086c-1.022-0.378-2.049-0.736-3.074-1.089
	c-0.414,0.114-0.814,0.179-1.157,0.231c-0.493,0.072-1.003,0.147-1.146,0.327c-0.576,0.713-0.572,1.154-0.563,2.032
	c0.005,0.575,0.012,1.291-0.167,2.181c-0.105,0.522-0.191,1.001-0.271,1.44c-0.641,3.554-1.12,5.184-5.755,6.539
	c-1.46,0.428-6.514,1.723-10.174,0.461c-1.536-0.529-2.636-1.069-3.7-1.868c-1.469-1.105-2.739-1.788-5.021-1.788
	c-0.014,0-0.027,0-0.039,0c-1.814,0-3.135,0.572-4.66,1.572c-1.111,0.726-2.26,1.334-3.674,1.774
	c-1.712,0.532-3.155,0.437-4.203,0.419c-1.846-0.025-2.078-0.068-2.225,2.808c-0.046,0.922,0.178,1.715,0.393,2.502
	c0.501,1.82,1.067,3.876-2.107,6.354c-1.612,1.258-3.31,1.583-5.014,1.583c-0.958,0-1.92-0.105-2.869-0.21
	c-0.744-0.081-1.506-0.163-2.262-0.192c2.914,5.447,3.072,9.875,3.256,15.35c0.037,1.123,0.076,2.303,0.141,3.559
	c0.182,3.479,0.272,7.418-0.926,10.141c-0.553,1.256-1.367,2.254-2.087,3.133c-1.206,1.475-2.161,2.641-1.853,4.674l0.184,1.213
	l-1.226,0.023c-0.185,0.002-0.384,0.041-0.597,0.1c0.369,0.119,0.719,0.262,1.02,0.459c4.761,3.119,5.662,7.887,0.979,11.219
	c-1.514,1.076-5.578,1.471-5.189,3.947c0.399,2.555,5.043,2.463,6.715,2.012c3.088-0.832,4.539-3.879,8.113-3.934
	c3.277-0.051,5.627,2.611,8.52,3.412c1.592,5.709-7.065,4.789-6.036,9.484c1.15,5.24,8.429,1.045,10.065,3.217
	c2.07,2.736-3.74,6.309,0.816,9.551c2.642,1.881,8.881,0.361,11.106-1.67c5.97-5.451,3.274-13.689,11.19-16.926
	c0.025-1.668,0.226-4.584,1.015-5.846C310.306,278.393,311.752,277.889,313.026,277.444z"/>
<path fill="#E6E6E6" d="M257.065,263.325l1.019,0.184c0.524,0.096,1.049-0.074,1.651-0.271c0.211-0.066,0.432-0.139,0.665-0.201
	c-0.005-2.361,1.261-3.912,2.396-5.299c0.693-0.848,1.349-1.65,1.784-2.637c1.093-2.484,0.868-6.83,0.749-9.166
	c-0.066-1.268-0.107-2.461-0.145-3.598c-0.198-5.918-0.342-10.194-3.874-15.937c-0.484-0.788-2.411-2.548-3.818-3.835
	c-2.24-2.047-2.827-2.629-2.999-3.197c-0.68-2.238,0.384-3.256,1.088-3.928c0.377-0.359,0.574-0.56,0.619-0.854
	c0.096-0.614-0.033-1.22-0.173-1.863c-0.177-0.828-0.379-1.766-0.103-2.805c0.282-1.063,0.939-1.996,1.576-2.898
	c1.388-1.965,1.771-2.759,0.623-3.941c-0.943-0.971-2.247-0.771-2.938-0.566c-1.52,0.45-2.846,1.707-3.088,2.924l-0.206,1.047
	l-1.048-0.199c-1.711-0.328-3.518-0.773-5.432-1.247c-4.188-1.033-8.513-2.091-12.336-2.063l-1.626,0.019l0.622-1.502
	c0.493-1.189,0.488-1.845,0.336-2.043c-0.439-0.573-2.846-0.252-4.285-0.061c-0.865,0.115-1.687,0.223-2.43,0.255
	c-0.605,1.727-1.436,3.417-1.793,5.192c-0.182,0.895,1.059,1.455,1.012,2.4c-0.034,0.654-1.646,1.426-1.608,1.766
	c0.206,1.83,0.59,3.076,1.514,4.797c-7.921,1.775-0.089,8.738,0.644,12.887c0.254,1.436,0.78,6.557-1.99,6.833
	c-3.205,0.318-2.492-5.382-3.261-6.833c-2.628-4.949-9.579-1.27-13.468,1.553c-5.91,4.287-0.279,9.455-4.297,14.779l-0.477-0.477
	c-1.378,0.215-2.674,0.592-4.221,0.549c0.438,3.045,2.549,6.338,0.783,9.449c-2.037,3.584-4.887,3.08-7.537,0.932
	c-2.619,1.639,2.408,5.871,0.605,9.594c-1.156,2.387-5.938,7.016-8.078,7.611c0.961,0.57,3.774,2.883,3.219,4.316
	c-0.881,2.281-4.594-0.137-5.779,2.375c-1.483,3.145,4.859,7.504,0.652,11.016c4.307-0.836,4.248,3.035,7.352,3.912
	c3.723,1.053,3.493-2.207,5.951-4.785c2.881-3.023,15.979-5.834,10.346-11.559c3.626-3.645,8.937,1.938,12.119-4.668
	c1.023-2.123,0.078-5.037,2.248-6.451c3.088-2.012,3.936,0.717,5.261,2.037c2.077,2.076,0.007,3.959,4.761,3.244
	c3.605-0.543,3.596-2.957,5.249-4.664c4.017-4.145,5.529-1.564,10.429,1.076c0.079,0.389-0.383,0.361-0.383,0.764
	c2.938-0.393,7.765-1.998,11.768-2.418c0.043-0.178,0.09-0.346,0.131-0.533L257.065,263.325z"/>
<path fill="#E6E6E6" d="M234.113,198.139c0.526,0.684,0.664,1.58,0.417,2.719c3.676,0.188,7.594,1.154,11.397,2.094
	c1.542,0.381,3.013,0.744,4.402,1.036c0.729-1.593,2.347-2.972,4.247-3.534c1.966-0.584,3.822-0.171,5.086,1.129
	c2.494,2.566,0.817,4.941-0.406,6.676c-0.553,0.783-1.074,1.52-1.256,2.209c-0.144,0.543-0.02,1.127,0.127,1.806
	c0.164,0.767,0.352,1.637,0.195,2.644c-0.16,1.027-0.795,1.633-1.258,2.076c-0.572,0.545-0.798,0.763-0.545,1.656
	c0.283,0.378,1.512,1.501,2.422,2.331c1.67,1.526,3.383,3.097,4.093,4.146l-0.013-0.363c1.225-0.042,2.406,0.086,3.547,0.211
	c2.414,0.265,4.496,0.491,6.33-0.939c2.045-1.596,1.814-2.433,1.355-4.101c-0.248-0.904-0.528-1.931-0.465-3.196
	c0.232-4.607,1.9-4.934,4.402-4.883c1.008,0.014,2.148,0.033,3.532-0.396c1.126-0.351,2.103-1.126,3.136-1.803
	c1.662-1.087,3.381-2.348,5.832-2.348c0.02,0,0.039,0,0.058,0c2.993,0,4.75,1.478,6.299,2.645c0.974,0.732,1.894,1.494,3.108,1.913
	c2.432,0.841,6.178,0.329,8.871-0.458c3.556-1.04,3.688-1.756,4.246-4.842c0.08-0.453,0.169-0.937,0.277-1.473
	c0.135-0.672,0.131-1.211,0.124-1.734c-0.009-1.026-0.018-2.086,1.038-3.396c0.127-0.161,0.27-0.288,0.418-0.401
	c-2.408-0.787-4.816-1.551-7.209-2.363c-3.6-1.221-3.814-1.084-4.297-5.25c-0.35-3.041,0.908-6.389-3.74-5.32
	c-0.031-3.059,9.303-2.541,11.973-3.629c2.965-1.207,7.408-3.242,8.401-6.704c-2.343-4.546-4.531-1.743-3.151-7.744
	c0.869-3.781,1.695-6.718-1.192-10.462c-2.415-3.134-7.372-4.792-11.228-2.526c-4.941,2.901-5.334,10.366-10.605,13.358
	c-7.262,4.119-19.105,5-27.205,5.871c-7.811,0.842-15.891-2.717-23.385-0.871c-11.127,2.74-7.42,17.422-17.1,21.93
	c0.021,0.541-0.023,1.07-0.108,1.594c0.545-0.053,1.107-0.125,1.556-0.186C230.335,196.926,232.916,196.581,234.113,198.139z"/>
<path fill="#E6E6E6" d="M413.409,226.779c-0.594-2.994-5.848-5.188-7.768-7.602c-2.81-3.528-4.776-6.844-8.842-9.235
	c-4.801-2.824-14.523-9.201-20.127-8.959c-4.244,0.182-8.398,4.422-12.539,5.868c-4.301,1.501-7.021,2.511-10.727,1.872
	c0.018,0.238,0.039,0.48,0.063,0.731c0.094,1.021,0.196,2.157,0.078,3.595c0.661,0.295,1.217,0.775,1.635,1.424
	c1.881,2.908,0.752,8.973-0.525,13.548c-1.139,4.075-2.439,6.51-3.865,7.239c-1.391,0.711-2.384,0.896-3.225,0.598
	c-0.99-0.35-1.391-1.254-1.711-1.98c-0.285-0.646-0.531-1.199-1.086-1.5c-2.412-1.295-12.387-2.246-13.954-0.087
	c-0.394,0.544-0.196,1.839-0.022,2.983c0.25,1.637,0.507,3.33-0.371,4.648c-0.75,1.127-2.385,1.699-3.967,2.25
	c-0.425,0.15-0.857,0.301-1.24,0.453c0.459,0.654,1.086,1.268,1.697,1.865c0.389,0.379,0.785,0.77,1.147,1.174
	c1.569,0,2.741,0.404,3.575,1.229c1.527,1.506,1.424,3.969,1.326,6.348c-0.021,0.516-0.043,1.045-0.049,1.561
	c3.131,0.182,4.14,0.801,5.486,4.029c0.726,1.738,1.06,4.508,0.082,6.484c-0.548,1.104-1.445,1.846-2.596,2.146
	c-1.49,0.393-2.943-0.361-4.35-1.088c-0.74-0.385-1.5-0.777-2.131-0.91c-0.682,0.977-1.869,1.895-1.89,1.904
	c-0.587,0.303-1.369,0.375-2.197,0.451c-0.482,0.043-1.026,0.094-1.3,0.186c-1.436,0.488-4.764,2.172-5.207,2.797
	c-0.433,0.639-0.412,1.344-0.384,2.238c0.042,1.363,0.095,3.061-1.614,4.744c-0.967,0.951-2.088,1.342-3.079,1.688
	c-1.121,0.393-2.007,0.701-2.633,1.703c-0.388,0.617-0.594,2.566-0.668,4.021c8.056-1.76,10.122,7.537,15.53,11.869
	c3.851,3.084,6.771,2.406,10.954-0.236c3.735-2.357,3.919-5.74,7.16-8.471c2.837-2.393,7.003-3.318,10.27-5.121
	c0.669-0.367,3.185-1.947,3.662-2.508c1.483-1.736,0.954-3.135,2.042-5.15c1.789-3.314,5.443-3.979,8.47-5.953
	c3.189-2.08,5.13-4.338,7.066-7.52c2.671-4.391,12.009-17.459,14.506-5.33c9.96,3.811,11.11-4.121,14.595-11.016
	C407.206,240.78,414.517,232.367,413.409,226.779z"/>
<path fill="#E6E6E6" d="M110.883,279.2c-2.494,0-5.517-1.584-8.44-3.117c-2.129-1.117-4.331-2.271-6.613-3.002
	c-1.962-0.629-4.303-0.842-6.781-1.068c-4.471-0.406-8.5-0.916-8.711-2.664c-0.194-1.623-1.357-2.963-2.936-3.387
	c-0.89-0.236-1.753-0.332-2.516-0.414c-0.115-0.014-0.246-0.027-0.381-0.043c-0.283-1.084-1.002-2.037-2.016-2.564
	c-2.631-1.373-2.595-1.748-2.315-4.668c0.226-2.359,0.534-5.588-1.16-9.295c-1.264-2.768-3.495-4.256-5.125-5.344
	c-0.877-0.584-1.634-1.09-2.044-1.617c-0.605-0.779-0.807-1.842-1.082-3.514c-0.202-1.217-0.431-2.596-0.951-4.019
	c-0.635-1.736-1.607-3.169-2.467-4.433c-0.901-1.326-1.68-2.472-1.728-3.455c-0.046-0.953,1.26-2.936,2.123-4.246
	c0.439-0.668,0.894-1.357,1.291-2.045c1.142-1.977,1.617-4.749,2.12-7.43c0.347-1.844,1.063-5.568,1.915-6.568c0,0,0.045,0,0.07,0
	c0.08,0,0.163,0.249,0.251,0.262c0.193,0.028,0.387,0.164,0.58,0.164c0.865,0,1.713-0.221,2.411-0.749
	c0.854-0.646,1.415-1.577,1.555-2.638c0.038-0.293,0.085-0.688,0.142-1.186c0.279-2.48,0.563-4.413,0.838-5.93
	c0.771,0.727,2.096,1.528,4.194,1.528c0.201,0,0.414-0.005,0.64-0.021c4.973-0.341,6.23-4.699,6.768-6.563
	c0.831,0.519,1.853,1.317,2.446,1.78c0.907,0.707,1.765,1.377,2.614,1.861l0.187,0.105c2.635,1.506,3.175,1.678,6.423,2.057
	c0.423,0.049,0.818,0.072,1.24,0.072c0.461,0,0.899-0.029,1.323-0.061c0.147-0.011,0.29-0.023,0.433-0.029
	c0.314,0.38,0.585,1.094,0.893,1.904c0.794,2.099,1.994,5.271,5.883,7.096c2.602,1.223,6.162,2.439,9.023,3.417l0.909,0.312
	c2.06,0.707,4.092,0.939,5.884,1.145c1.729,0.197,3.225,0.368,4.423,0.891c0.86,0.375,1.577,0.727,2.225,1.043
	c2.488,1.215,4.638,2.266,9.296,2.271c2.561,0,4.8-0.426,6.776-0.8c1.476-0.28,2.751-0.521,3.798-0.521c1.035,0,2.323,0,4.109,3.396
	c0.679,1.291,2.004,2.109,3.462,2.137c1.674,0.033,2.231,0.516,2.272,0.609c0.081,0.188-0.021,1.069-1.071,2.236
	c-0.491,0.544-1.013,1-1.565,1.482c-1.66,1.448-3.725,3.251-4.525,7.185c-0.335,1.642-0.471,3.36-0.603,5.024
	c-0.082,1.033-0.159,2.012-0.277,2.855c-0.154,1.115-0.183,2.191-0.21,3.232c-0.038,1.477-0.074,2.873-0.479,3.693
	c-0.22,0.445-0.684,0.83-1.485,1.471c-0.866,0.693-1.943,1.555-2.853,2.836c-0.919,1.297-1.538,2.738-2.085,4.01
	c-0.087,0.203-0.192,0.445-0.304,0.699c-0.168-0.264-0.354-0.512-0.558-0.744c-1.017-1.146-2.406-1.777-3.913-1.777
	c-2.91,0-5.551,2.318-7.063,6.205c-0.408,1.049-0.741,2.029-1.063,2.979c-0.803,2.359-1.438,4.225-2.824,6.068
	c-0.85,1.135-1.978,2.098-3.171,3.117c-1.327,1.135-2.699,2.307-3.938,3.873c-0.866,1.098-1.435,2.115-1.89,2.932
	c-0.897,1.607-0.933,1.67-2.586,1.908C111.417,279.182,111.151,279.2,110.883,279.2z"/>
<path fill="#ED3136" d="M378.621,216.194c-3.975,0-7.206,3.232-7.206,7.203c0,3.974,3.231,7.207,7.206,7.207
	c3.972,0,7.204-3.233,7.204-7.207C385.825,219.426,382.593,216.194,378.621,216.194L378.621,216.194z M378.621,228.664
	c-2.903,0-5.267-2.361-5.267-5.267c0-2.904,2.363-5.266,5.267-5.266s5.266,2.362,5.266,5.266
	C383.887,226.302,381.524,228.664,378.621,228.664L378.621,228.664z M378.621,228.664"/>
<path fill="#ED3136" d="M378.621,211.18c-6.737,0-12.22,5.48-12.22,12.217c0,3.886,3.261,9.674,5.2,12.78
	c1.277,2.04,2.652,3.985,3.868,5.473c1.951,2.386,2.648,2.586,3.151,2.586c0.508,0,1.167-0.2,3.112-2.587
	c1.218-1.497,2.592-3.439,3.867-5.472c1.957-3.11,5.237-8.911,5.237-12.78C390.838,216.661,385.357,211.18,378.621,211.18
	L378.621,211.18z M384.259,234.668c-2.506,4.067-4.808,6.816-5.651,7.517c-0.847-0.679-3.109-3.362-5.65-7.503
	c-2.933-4.784-4.617-8.895-4.617-11.285c0-5.668,4.612-10.279,10.281-10.279c5.667,0,10.278,4.611,10.278,10.279
	C388.899,225.774,387.208,229.881,384.259,234.668L384.259,234.668z M384.259,234.668"/>
<path fill="#ED3136" d="M98.954,219.194c-3.975,0-7.206,3.232-7.206,7.203c0,3.974,3.231,7.207,7.206,7.207
	c3.972,0,7.204-3.233,7.204-7.207C106.158,222.426,102.926,219.194,98.954,219.194L98.954,219.194z M98.954,231.664
	c-2.903,0-5.267-2.361-5.267-5.267c0-2.904,2.363-5.266,5.267-5.266s5.266,2.362,5.266,5.266
	C104.22,229.302,101.857,231.664,98.954,231.664L98.954,231.664z M98.954,231.664"/>
<path fill="#ED3136" d="M98.954,214.18c-6.737,0-12.22,5.48-12.22,12.217c0,3.886,3.261,9.674,5.2,12.78
	c1.277,2.04,2.652,3.985,3.868,5.473c1.951,2.386,2.648,2.586,3.151,2.586c0.508,0,1.167-0.2,3.112-2.587
	c1.218-1.497,2.592-3.439,3.867-5.472c1.957-3.11,5.237-8.911,5.237-12.78C111.171,219.661,105.69,214.18,98.954,214.18
	L98.954,214.18z M104.592,237.668c-2.506,4.067-4.808,6.816-5.651,7.517c-0.847-0.679-3.109-3.362-5.65-7.503
	c-2.933-4.784-4.617-8.895-4.617-11.285c0-5.668,4.612-10.279,10.281-10.279c5.667,0,10.278,4.611,10.278,10.279
	C109.232,228.774,107.541,232.881,104.592,237.668L104.592,237.668z M104.592,237.668"/>
<path fill="#ED3136" d="M236.954,226.528c-3.975,0-7.206,3.232-7.206,7.203c0,3.974,3.231,7.207,7.206,7.207
	c3.972,0,7.204-3.233,7.204-7.207C244.158,229.76,240.926,226.528,236.954,226.528L236.954,226.528z M236.954,238.998
	c-2.903,0-5.267-2.361-5.267-5.267c0-2.904,2.363-5.266,5.267-5.266s5.266,2.362,5.266,5.266
	C242.22,236.636,239.857,238.998,236.954,238.998L236.954,238.998z M236.954,238.998"/>
<path fill="#ED3136" d="M236.954,221.514c-6.737,0-12.22,5.48-12.22,12.217c0,3.886,3.261,9.674,5.2,12.78
	c1.277,2.04,2.652,3.985,3.868,5.473c1.951,2.386,2.648,2.586,3.151,2.586c0.508,0,1.167-0.2,3.112-2.587
	c1.218-1.497,2.592-3.439,3.867-5.472c1.957-3.11,5.237-8.911,5.237-12.78C249.171,226.995,243.69,221.514,236.954,221.514
	L236.954,221.514z M242.592,245.002c-2.506,4.067-4.808,6.816-5.651,7.517c-0.847-0.679-3.109-3.362-5.65-7.503
	c-2.933-4.784-4.617-8.895-4.617-11.285c0-5.668,4.612-10.279,10.281-10.279c5.667,0,10.278,4.611,10.278,10.279
	C247.232,236.108,245.541,240.215,242.592,245.002L242.592,245.002z M242.592,245.002"/>
<path fill="#ED3136" d="M271.621,161.527c-3.975,0-7.206,3.232-7.206,7.203c0,3.974,3.231,7.208,7.206,7.208
	c3.972,0,7.204-3.234,7.204-7.208C278.825,164.76,275.593,161.527,271.621,161.527L271.621,161.527z M271.621,173.997
	c-2.903,0-5.267-2.361-5.267-5.267c0-2.904,2.363-5.266,5.267-5.266s5.266,2.362,5.266,5.266
	C276.887,171.636,274.524,173.997,271.621,173.997L271.621,173.997z M271.621,173.997"/>
<path fill="#ED3136" d="M271.621,156.514c-6.737,0-12.22,5.48-12.22,12.217c0,3.886,3.261,9.674,5.2,12.78
	c1.277,2.041,2.652,3.986,3.868,5.473c1.951,2.387,2.648,2.586,3.151,2.586c0.508,0,1.167-0.199,3.112-2.586
	c1.218-1.498,2.592-3.439,3.867-5.473c1.957-3.109,5.237-8.911,5.237-12.78C283.838,161.994,278.357,156.514,271.621,156.514
	L271.621,156.514z M277.259,180.002c-2.506,4.066-4.808,6.816-5.651,7.516c-0.847-0.678-3.109-3.361-5.65-7.502
	c-2.933-4.785-4.617-8.895-4.617-11.286c0-5.668,4.612-10.279,10.281-10.279c5.667,0,10.278,4.611,10.278,10.279
	C281.899,171.107,280.208,175.215,277.259,180.002L277.259,180.002z M277.259,180.002"/>
<path fill="#ED3136" d="M296.996,226.833c-3.975,0-7.206,3.232-7.206,7.203c0,3.973,3.231,7.207,7.206,7.207
	c3.972,0,7.204-3.234,7.204-7.207C304.2,230.065,300.968,226.833,296.996,226.833L296.996,226.833z M296.996,239.301
	c-2.903,0-5.267-2.361-5.267-5.266s2.363-5.266,5.267-5.266s5.266,2.361,5.266,5.266S299.899,239.301,296.996,239.301
	L296.996,239.301z M296.996,239.301"/>
<path fill="#ED3136" d="M296.996,221.819c-6.737,0-12.22,5.48-12.22,12.217c0,3.885,3.261,9.674,5.2,12.779
	c1.277,2.041,2.652,3.986,3.868,5.473c1.951,2.387,2.648,2.586,3.151,2.586c0.508,0,1.167-0.199,3.112-2.586
	c1.218-1.498,2.592-3.439,3.867-5.473c1.957-3.109,5.237-8.91,5.237-12.779C309.213,227.299,303.732,221.819,296.996,221.819
	L296.996,221.819z M302.634,245.307c-2.506,4.066-4.808,6.816-5.651,7.516c-0.847-0.678-3.109-3.361-5.65-7.502
	c-2.933-4.785-4.617-8.895-4.617-11.285c0-5.668,4.612-10.279,10.281-10.279c5.667,0,10.278,4.611,10.278,10.279
	C307.274,236.413,305.583,240.52,302.634,245.307L302.634,245.307z M302.634,245.307"/>
</svg>
