<?xml version="1.0" encoding="utf-8"?>
<!-- Generator: Adobe Illustrator 16.0.0, SVG Export Plug-In . SVG Version: 6.00 Build 0)  -->
<!DOCTYPE svg PUBLIC "-//W3C//DTD SVG 1.1//EN" "http://www.w3.org/Graphics/SVG/1.1/DTD/svg11.dtd">
<svg version="1.1" id="Capa_1" xmlns="http://www.w3.org/2000/svg" xmlns:xlink="http://www.w3.org/1999/xlink" x="0px" y="0px"
	 width="200px" height="200px" viewBox="0 0 200 200" enable-background="new 0 0 200 200" xml:space="preserve">
<g>
	<g>
		<path fill="#FFFFFF" d="M160,148H51V81h109V148z M58,141h95V88H58V141z"/>
	</g>
	<g>
		<rect x="78" y="88" fill="#FFFFFF" width="2" height="56"/>
	</g>
	<g>
		<rect x="79" y="116" fill="#FFFFFF" width="75" height="2"/>
	</g>
	<g>
		<rect x="79" y="125" fill="#FFFFFF" width="78" height="2"/>
	</g>
	<g>
		<rect x="80" y="133" fill="#FFFFFF" width="74" height="2"/>
	</g>
	<g>
		<path fill="#FFFFFF" d="M67.499,123.528c-1.838,0-3.333-1.495-3.333-3.333s1.495-3.334,3.333-3.334s3.334,1.496,3.334,3.334
			S69.337,123.528,67.499,123.528z M67.499,118.861c-0.735,0-1.333,0.599-1.333,1.334s0.598,1.333,1.333,1.333
			s1.334-0.598,1.334-1.333S68.234,118.861,67.499,118.861z"/>
	</g>
	<g>
		<path fill="#FFFFFF" d="M67.499,106.528c-1.838,0-3.333-1.495-3.333-3.333s1.495-3.334,3.333-3.334s3.334,1.496,3.334,3.334
			S69.337,106.528,67.499,106.528z M67.499,101.861c-0.735,0-1.333,0.599-1.333,1.334s0.598,1.333,1.333,1.333
			s1.334-0.598,1.334-1.333S68.234,101.861,67.499,101.861z"/>
	</g>
	<g>
		<rect x="65" y="51" fill="#FFFFFF" width="3" height="33"/>
	</g>
	<g>
		<path fill="#FFFFFF" d="M67.999,53.361c-3.309,0-6-2.691-6-6s2.691-6,6-6s6,2.691,6,6S71.308,53.361,67.999,53.361z
			 M67.999,44.361c-1.654,0-3,1.346-3,3s1.346,3,3,3s3-1.346,3-3S69.653,44.361,67.999,44.361z"/>
	</g>
</g>
</svg>
