<?xml version="1.0" encoding="utf-8"?>
<!-- Generator: Adobe Illustrator 16.0.0, SVG Export Plug-In . SVG Version: 6.00 Build 0)  -->
<!DOCTYPE svg PUBLIC "-//W3C//DTD SVG 1.1//EN" "http://www.w3.org/Graphics/SVG/1.1/DTD/svg11.dtd">
<svg version="1.1" id="Capa_1" xmlns="http://www.w3.org/2000/svg" xmlns:xlink="http://www.w3.org/1999/xlink" x="0px" y="0px"
	 width="8.374px" height="11.458px" viewBox="0 0 8.374 11.458" enable-background="new 0 0 8.374 11.458" xml:space="preserve">
<g>
	<path fill="#666666" d="M4.187,1.976c-1.272,0-2.306,1.093-2.306,2.436c0,1.343,1.034,2.437,2.306,2.437
		c1.271,0,2.305-1.093,2.305-2.437C6.492,3.069,5.458,1.976,4.187,1.976L4.187,1.976z M4.187,6.192c-0.93,0-1.685-0.798-1.685-1.781
		c0-0.982,0.755-1.781,1.685-1.781c0.929,0,1.685,0.799,1.685,1.781C5.872,5.394,5.116,6.192,4.187,6.192L4.187,6.192z M4.187,6.192
		"/>
	<path fill="#666666" d="M4.187,0.281c-2.156,0-3.91,1.854-3.91,4.131c0,1.313,1.043,3.271,1.664,4.32
		c0.409,0.691,0.849,1.349,1.238,1.852c0.625,0.807,0.848,0.874,1.008,0.874c0.163,0,0.374-0.067,0.996-0.875
		c0.39-0.506,0.829-1.163,1.238-1.85C7.047,7.68,8.097,5.72,8.097,4.412C8.097,2.135,6.342,0.281,4.187,0.281L4.187,0.281z
		 M5.991,8.222c-0.802,1.376-1.539,2.305-1.809,2.542c-0.271-0.23-0.995-1.137-1.808-2.538C1.436,6.61,0.896,5.22,0.896,4.412
		c0-1.917,1.476-3.476,3.291-3.476s3.29,1.56,3.29,3.476C7.477,5.215,6.936,6.604,5.991,8.222L5.991,8.222z M5.991,8.222"/>
</g>
</svg>
