<?xml version="1.0" encoding="utf-8"?>
<!-- Generator: Adobe Illustrator 16.0.0, SVG Export Plug-In . SVG Version: 6.00 Build 0)  -->
<!DOCTYPE svg PUBLIC "-//W3C//DTD SVG 1.1//EN" "http://www.w3.org/Graphics/SVG/1.1/DTD/svg11.dtd">
<svg version="1.1" id="Capa_1" xmlns="http://www.w3.org/2000/svg" xmlns:xlink="http://www.w3.org/1999/xlink" x="0px" y="0px"
	 width="20.684px" height="19.903px" viewBox="0 0 20.684 19.903" enable-background="new 0 0 20.684 19.903" xml:space="preserve">
<g>
	<path fill="#666666" d="M20.215,0H0.469C0.209,0,0,0.209,0,0.468v9.365c0,0.26,0.209,0.469,0.469,0.469h19.747
		c0.26,0,0.469-0.209,0.469-0.469V0.468C20.684,0.209,20.475,0,20.215,0L20.215,0z M19.747,9.366H0.937v-8.43h18.81V9.366z
		 M19.747,9.366"/>
	<path fill="#666666" d="M20.215,10.872c-0.258,0-0.469,0.209-0.469,0.469v0.365h-3.014V11.34c0-0.26-0.209-0.469-0.467-0.469
		s-0.467,0.209-0.467,0.469v0.365h-3.016V11.34c0-0.26-0.209-0.469-0.467-0.469s-0.469,0.209-0.469,0.469v0.365H8.835V11.34
		c0-0.26-0.21-0.469-0.468-0.469c-0.259,0-0.468,0.209-0.468,0.469v0.365H4.885V11.34c0-0.26-0.209-0.469-0.467-0.469
		c-0.259,0-0.469,0.209-0.469,0.469v0.365H0.937V11.34c0-0.26-0.21-0.469-0.468-0.469C0.209,10.872,0,11.081,0,11.34v0.832
		c0,0.26,0.209,0.469,0.469,0.469h8.234v6.795c0,0.258,0.211,0.467,0.47,0.467c0.258,0,0.467-0.209,0.467-0.467v-6.795h1.404v6.795
		c0,0.258,0.209,0.467,0.469,0.467c0.258,0,0.469-0.209,0.469-0.467v-6.795h8.234c0.26,0,0.469-0.209,0.469-0.469V11.34
		C20.684,11.081,20.475,10.872,20.215,10.872L20.215,10.872z M20.215,10.872"/>
</g>
</svg>
