<?xml version="1.0" encoding="utf-8"?>
<!-- Generator: Adobe Illustrator 16.0.0, SVG Export Plug-In . SVG Version: 6.00 Build 0)  -->
<!DOCTYPE svg PUBLIC "-//W3C//DTD SVG 1.1//EN" "http://www.w3.org/Graphics/SVG/1.1/DTD/svg11.dtd">
<svg version="1.1" id="Capa_1" xmlns="http://www.w3.org/2000/svg" xmlns:xlink="http://www.w3.org/1999/xlink" x="0px" y="0px"
	 width="200px" height="200px" viewBox="0 0 200 200" enable-background="new 0 0 200 200" xml:space="preserve">
<g>
	<g>
		<path fill="#FFFFFF" d="M157,153H42V78h115V153z M49,146h101V85H49V146z"/>
	</g>
	<g>
		<path fill="#FFFFFF" d="M144.983,141.985H53.531v-52.45h91.452V141.985z M54.531,140.985h89.452v-50.45H54.531V140.985z"/>
	</g>
	<g>
		<polygon fill="#FFFFFF" points="100.2,82.649 73.279,54.694 74.721,53.306 99.8,79.351 115.635,51.999 117.365,53.001 		"/>
	</g>
	<g>
		<path fill="#FFFFFF" d="M71.417,55.63c-2.048,0-3.714-1.666-3.714-3.713s1.666-3.713,3.714-3.713s3.713,1.666,3.713,3.713
			S73.465,55.63,71.417,55.63z M71.417,50.204c-0.944,0-1.714,0.768-1.714,1.713c0,0.944,0.77,1.713,1.714,1.713
			s1.713-0.769,1.713-1.713C73.13,50.972,72.361,50.204,71.417,50.204z"/>
	</g>
	<g>
		<path fill="#FFFFFF" d="M118.167,54.713c-2.048,0-3.714-1.665-3.714-3.713s1.666-3.714,3.714-3.714
			c2.047,0,3.713,1.666,3.713,3.714S120.214,54.713,118.167,54.713z M118.167,49.286c-0.945,0-1.714,0.77-1.714,1.714
			s0.769,1.713,1.714,1.713c0.944,0,1.713-0.769,1.713-1.713S119.111,49.286,118.167,49.286z"/>
	</g>
</g>
</svg>
